<?xml version="1.0" encoding="utf-8"?>
<!-- Generator: Adobe Illustrator 23.0.1, SVG Export Plug-In . SVG Version: 6.00 Build 0)  -->
<svg version="1.1" id="Layer_1" xmlns="http://www.w3.org/2000/svg" xmlns:xlink="http://www.w3.org/1999/xlink" x="0px" y="0px"
	 viewBox="0 0 533.9 249.1" style="enable-background:new 0 0 533.9 249.1;" xml:space="preserve">
<style type="text/css">
	.st0{fill:url(#Path_4910_1_);}
	.st1{fill:#F5F9FD;}
	.st2{fill:#DFEBFA;}
	.st3{fill:#EEF6FF;}
	.st4{fill:#CBDCF7;}
	.st5{fill:#8FADEF;}
	.st6{fill:#BBD0FF;}
	.st7{fill:#AEC3FF;}
	.st8{fill:#D2E0FF;}
	.st9{fill:#C0D8FB;}
	.st10{fill:#DFEBFD;}
	.st11{fill:#B7D3F3;}
	.st12{fill:#2B478B;}
	.st13{fill:#FFB27D;}
	.st14{fill:#F99746;}
	.st15{fill:#E8945B;}
	.st16{fill:#2C3A64;}
	.st17{fill:#94B0ED;}
	.st18{fill:#C8DBF4;}
	.st19{fill:#FFFFFF;}
	.st20{fill:#D4E4F8;}
	.st21{fill:#ABDDDA;}
	.st22{fill:#233862;}
	.st23{fill:#93312C;}
	.st24{fill:#B5453C;}
	.st25{fill:#E2915A;}
	.st26{fill:#91CECF;}
	.st27{fill:#C65447;}
	.st28{fill:#ED985F;}
	.st29{fill:#6BB7BF;}
	.st30{enable-background:new    ;}
	.st31{fill:none;stroke:#000000;stroke-width:0.5;}
	.st32{fill:none;stroke:#000000;}
</style>
<linearGradient id="Path_4910_1_" gradientUnits="userSpaceOnUse" x1="-152.1971" y1="421.5792" x2="-152.1971" y2="420.5792" gradientTransform="matrix(505.1098 0 0 -248.4086 77143.6562 104723.8984)">
	<stop  offset="0" style="stop-color:#E6EDF3"/>
	<stop  offset="1" style="stop-color:#EBF3FA;stop-opacity:0"/>
</linearGradient>
<path id="Path_4910" class="st0" d="M497.2,248.4l-465.5-0.7c-1.4-3.7-49.9-162.8,24.5-213.8l0.4-0.3c1-0.7,2-1.3,2.9-1.9
	c48-31.5,89.2-35.8,123.5-28.9l0,0c1.1,0.2,2.2,0.5,3.4,0.7c50.5,11.4,85.4,46.7,104,52.4c80.1,24.6,110.8-32.4,173.4-13.5
	C534.5,63.7,529.7,195.1,497.2,248.4z"/>
<g id="Group_2583" transform="translate(188.116 519.335)">
	<path id="Path_4911" class="st1" d="M-5-516.5c-34.2-6.9-75.5-2.6-123.5,28.9c-1,0.6-1.9,1.3-2.9,1.9l-0.4,0.3v69.6H-5L-5-516.5
		L-5-516.5z"/>
	<g id="Group_2582" transform="translate(0 15.23)">
		<path id="Path_4912" class="st2" d="M-16.7-494.3v-20c-0.2-0.1-0.3-0.2-0.4-0.2H-20v0h-16.8v0h0v3h0v2.1h0v3h0v2.1h0v3h0v0l-1.8,0
			v-15.7h-18.9v2h0v3h0v2.6h0v3h0v2.1h0v3h0v1.9h0v3h0v1.9h0v3h0v1.8h0v1.9h0v0.2h-21.3v17.2h-7.9v4.3h-8.6v-7.4h-15.4v-20.2h-2.4
			v-2h-0.3v2h-2l0,0h-10v-2h-0.3v2h-2.6v10.2h-0.2l-3.4,0v51.7h-5.1v4.6H-5v-66.9H-16.7z"/>
		<g id="Group_2577" transform="translate(79.55 2.243)">
			<rect id="Rectangle_989" x="-137" y="-519.3" class="st3" width="12.1" height="4"/>
			<rect id="Rectangle_990" x="-137" y="-513.2" class="st3" width="12.1" height="4"/>
			<rect id="Rectangle_991" x="-137" y="-506.9" class="st3" width="12.1" height="4"/>
			<rect id="Rectangle_992" x="-137" y="-500.5" class="st3" width="12.1" height="4"/>
			<rect id="Rectangle_993" x="-137" y="-494.4" class="st3" width="12.1" height="4"/>
		</g>
		<g id="Group_2578" transform="translate(79.55 33.97)">
			<rect id="Rectangle_994" x="-137" y="-519.3" class="st3" width="12.1" height="4"/>
			<rect id="Rectangle_995" x="-137" y="-513.2" class="st3" width="12.1" height="4"/>
			<rect id="Rectangle_996" x="-137" y="-506.9" class="st3" width="12.1" height="4"/>
			<rect id="Rectangle_997" x="-137" y="-500.5" class="st3" width="12.1" height="4"/>
			<rect id="Rectangle_998" x="-137" y="-494.4" class="st3" width="12.1" height="4"/>
		</g>
		<g id="Group_2579" transform="translate(100.212 4.863)">
			<rect id="Rectangle_999" x="-137" y="-519.3" class="st3" width="12.1" height="4"/>
			<rect id="Rectangle_1000" x="-137" y="-513.2" class="st3" width="12.1" height="4"/>
			<rect id="Rectangle_1001" x="-137" y="-506.9" class="st3" width="12.1" height="4"/>
			<rect id="Rectangle_1002" x="-137" y="-500.5" class="st3" width="12.1" height="4"/>
			<rect id="Rectangle_1003" x="-137" y="-494.4" class="st3" width="12.1" height="4"/>
		</g>
		<g id="Group_2580" transform="translate(100.212 36.232)">
			<rect id="Rectangle_1004" x="-137" y="-519.3" class="st3" width="12.1" height="4"/>
			<rect id="Rectangle_1005" x="-137" y="-513.2" class="st3" width="12.1" height="4"/>
			<rect id="Rectangle_1006" x="-137" y="-506.9" class="st3" width="12.1" height="4"/>
			<rect id="Rectangle_1007" x="-137" y="-500.5" class="st3" width="12.1" height="4"/>
			<rect id="Rectangle_1008" x="-137" y="-494.4" class="st3" width="12.1" height="4"/>
		</g>
		<g id="Group_2581" transform="translate(100.212 68.243)">
			<rect id="Rectangle_1009" x="-137" y="-519.3" class="st3" width="12.1" height="4"/>
			<rect id="Rectangle_1010" x="-137" y="-513.2" class="st3" width="12.1" height="4"/>
			<rect id="Rectangle_1011" x="-137" y="-506.9" class="st3" width="12.1" height="4"/>
			<rect id="Rectangle_1012" x="-137" y="-500.5" class="st3" width="12.1" height="4"/>
		</g>
		<rect id="Rectangle_1013" x="-74.8" y="-495.7" class="st2" width="0.6" height="8.1"/>
		<rect id="Rectangle_1014" x="-64.7" y="-502.7" class="st2" width="0.9" height="15.8"/>
		<rect id="Rectangle_1015" x="-55.6" y="-519.3" class="st2" width="0.3" height="2.2"/>
		<rect id="Rectangle_1016" x="-41.4" y="-519.3" class="st2" width="0.3" height="2.2"/>
	</g>
	<rect id="Rectangle_1017" x="-137" y="-416.8" class="st4" width="136.6" height="4.6"/>
	<path id="Path_4913" class="st4" d="M-128.5-487.6v70.8h-3.4v-68.6c0.1-0.1,0.3-0.2,0.4-0.3C-130.5-486.3-129.5-487-128.5-487.6z"
		/>
	<path id="Path_4914" class="st4" d="M-5-516.5c1.1,0.2,2.2,0.5,3.4,0.7v99h-3.4L-5-516.5L-5-516.5z"/>
</g>
<g id="Group_2588" transform="translate(576.457 708.002)">
	<path id="Path_4915" class="st5" d="M-137-518.4v1.5c0,0.5,0.2,0.9,0.4,0.9h53.8c0.2,0,0.4-0.4,0.4-0.9v-1.5c0-0.5-0.2-0.9-0.4-0.9
		h-53.8C-136.8-519.3-137-518.9-137-518.4z"/>
	<path id="Path_4916" class="st6" d="M-137-518.4v1.5c0,0.5,0.2,0.9,0.3,0.9h42.7c0.2,0,0.3-0.4,0.3-0.9v-1.5c0-0.5-0.2-0.9-0.3-0.9
		h-42.7C-136.8-519.3-137-518.9-137-518.4z"/>
	<rect id="Rectangle_1019" x="-123.4" y="-516" class="st7" width="38.2" height="55.7"/>
	<rect id="Rectangle_1020" x="-134.1" y="-516" class="st8" width="38.2" height="55.7"/>
	<g id="Group_2587" transform="translate(4.967 4.925)">
		<g id="Group_2584">
			<path id="Path_4917" class="st7" d="M-137-519.3h34.1v51H-137V-519.3z M-103.3-519h-33.4v50.3h33.4L-103.3-519z"/>
		</g>
		<g id="Group_2585" transform="translate(0.184 16.886)">
			<rect id="Rectangle_1021" x="-137" y="-519.3" class="st7" width="33.7" height="0.4"/>
		</g>
		<g id="Group_2586" transform="translate(0.184 34.102)">
			<rect id="Rectangle_1022" x="-137" y="-519.3" class="st7" width="33.7" height="0.4"/>
		</g>
		<path id="Path_4918" class="st7" d="M-123.4-516h6.3c0.3,0,0.6-0.2,0.6-0.6l0,0c0-0.3-0.2-0.6-0.6-0.6h-6.3
			c-0.3,0-0.6,0.2-0.6,0.6l0,0C-124-516.3-123.7-516-123.4-516z"/>
		<path id="Path_4919" class="st7" d="M-123.4-499.2h6.3c0.3,0,0.6-0.2,0.6-0.6l0,0c0-0.3-0.2-0.6-0.6-0.6h-6.3
			c-0.3,0-0.6,0.2-0.6,0.6l0,0C-124-499.5-123.7-499.2-123.4-499.2z"/>
		<path id="Path_4920" class="st7" d="M-123.4-481.7h6.3c0.3,0,0.6-0.2,0.6-0.6l0,0c0-0.3-0.2-0.6-0.6-0.6h-6.3
			c-0.3,0-0.6,0.2-0.6,0.6l0,0C-124-481.9-123.7-481.7-123.4-481.7z"/>
	</g>
</g>
<g id="Group_2595" transform="translate(581.572 579.454)">
	<path id="Rectangle_1023" class="st9" d="M-128.3-519.3h6.2c4.8,0,8.7,3.9,8.7,8.7v5.5c0,4.8-3.9,8.7-8.7,8.7l0,0h-6.2
		c-4.8,0-8.7-3.9-8.7-8.7c0,0,0,0,0,0v-5.5C-137-515.4-133.1-519.3-128.3-519.3C-128.3-519.3-128.3-519.3-128.3-519.3z"/>
	<path id="Rectangle_1024" class="st10" d="M-128-518.3h5.6c4.4,0,7.9,3.6,7.9,7.9v5c0,4.4-3.6,7.9-7.9,7.9l0,0h-5.6
		c-4.4,0-7.9-3.6-7.9-7.9c0,0,0,0,0,0v-5C-136-514.8-132.4-518.3-128-518.3z"/>
	<g id="Group_2591" transform="translate(2.782 2.588)">
		<g id="Group_2589" transform="translate(8.511)">
			<path id="Path_4921" class="st11" d="M-137-518.8c0-0.3,0.2-0.5,0.5-0.5s0.5,0.2,0.5,0.5s-0.2,0.5-0.5,0.5S-137-518.6-137-518.8
				L-137-518.8z"/>
			<path id="Path_4922" class="st11" d="M-133.1-518.2c0.1-0.2,0.4-0.3,0.7-0.2c0.2,0.1,0.3,0.4,0.2,0.7c-0.1,0.2-0.4,0.3-0.7,0.2
				C-133.1-517.6-133.2-517.9-133.1-518.2C-133.1-518.2-133.1-518.2-133.1-518.2z"/>
			<path id="Path_4923" class="st11" d="M-129.7-515.5c0.2-0.1,0.5-0.1,0.7,0.1c0.1,0.2,0.1,0.5-0.1,0.7c-0.2,0.1-0.5,0.1-0.7-0.1
				C-130-515-129.9-515.3-129.7-515.5C-129.7-515.5-129.7-515.5-129.7-515.5z"/>
			<path id="Path_4924" class="st11" d="M-128-511.3c0.3,0,0.5,0.2,0.5,0.5s-0.2,0.5-0.5,0.5c-0.3,0-0.5-0.2-0.5-0.5
				S-128.3-511.3-128-511.3L-128-511.3z"/>
			<path id="Path_4925" class="st11" d="M-128.9-506.5c0.2,0.2,0.2,0.5,0,0.7c-0.2,0.2-0.5,0.2-0.7,0c-0.2-0.2-0.2-0.5,0-0.7
				c0,0,0,0,0,0C-129.4-506.7-129.1-506.7-128.9-506.5C-128.9-506.5-128.9-506.5-128.9-506.5z"/>
			<path id="Path_4926" class="st11" d="M-131.9-503.4c0.2,0.2,0.2,0.5,0,0.7c-0.2,0.2-0.5,0.2-0.7,0c-0.2-0.2-0.2-0.5,0-0.7
				C-132.4-503.6-132.1-503.6-131.9-503.4z"/>
			<path id="Path_4927" class="st11" d="M-137-501.9c0-0.3,0.2-0.5,0.5-0.5s0.5,0.2,0.5,0.5s-0.2,0.5-0.5,0.5S-137-501.6-137-501.9
				L-137-501.9z"/>
		</g>
		<g id="Group_2590" transform="translate(0 0.927)">
			<path id="Path_4928" class="st11" d="M-131.5-519.1c-0.1-0.2-0.4-0.3-0.7-0.2c-0.2,0.1-0.3,0.4-0.2,0.7c0.1,0.2,0.4,0.3,0.7,0.2
				C-131.4-518.5-131.3-518.8-131.5-519.1C-131.5-519.1-131.5-519.1-131.5-519.1z"/>
			<path id="Path_4929" class="st11" d="M-134.8-516.4c-0.2-0.1-0.5-0.1-0.7,0.1c-0.1,0.2-0.1,0.5,0.1,0.7c0.2,0.1,0.5,0.1,0.7-0.1
				C-134.5-516-134.6-516.3-134.8-516.4C-134.8-516.4-134.8-516.4-134.8-516.4z"/>
			<path id="Path_4930" class="st11" d="M-136.5-512.3c-0.3,0-0.5,0.2-0.5,0.5c0,0.3,0.2,0.5,0.5,0.5c0.3,0,0.5-0.2,0.5-0.5
				C-136-512-136.2-512.3-136.5-512.3L-136.5-512.3z"/>
			<path id="Path_4931" class="st11" d="M-135.7-507.4c-0.2,0.2-0.2,0.5,0,0.7c0.2,0.2,0.5,0.2,0.7,0c0.2-0.2,0.2-0.5,0-0.7
				c0,0,0,0,0,0C-135.2-507.6-135.5-507.6-135.7-507.4z"/>
			<path id="Path_4932" class="st11" d="M-132.6-504.4c-0.2,0.2-0.2,0.5,0,0.7c0.2,0.2,0.5,0.2,0.7,0c0.2-0.2,0.2-0.5,0-0.7
				c0,0,0,0,0,0C-132.1-504.6-132.4-504.6-132.6-504.4z"/>
		</g>
	</g>
	<g id="Group_2594" transform="translate(11.649 4.986)">
		<path id="Path_4933" class="st11" d="M-137-513.2c0-0.3,0.2-0.5,0.5-0.5s0.5,0.2,0.5,0.5s-0.2,0.5-0.5,0.5S-137-513-137-513.2
			L-137-513.2z"/>
		<g id="Group_2592" transform="translate(0.422)">
			<rect id="Rectangle_1025" x="-137" y="-519.3" class="st11" width="0.1" height="6.1"/>
		</g>
		<g id="Group_2593" transform="translate(0.303 3.394)">
			
				<rect id="Rectangle_1026" x="-137.3" y="-518.1" transform="matrix(0.787 -0.617 0.617 0.787 290.7267 -193.7791)" class="st11" width="4.1" height="0.4"/>
		</g>
	</g>
</g>
<g id="Group_2601" transform="translate(244.544 632.8)">
	<path id="Path_4934" class="st8" d="M13.7-447.2h-101l-44.2-43.8c-2.6-2.5-2.6-6.7,0-9.2c0.2-0.2,0.5-0.5,0.7-0.6l2.2-1.7l89.5,1.3
		L13.7-447.2z"/>
	<path id="Path_4935" class="st7" d="M-86.6-446l-8.3,6.2l-38.2-51.3c-2.1-2.8-1.5-6.9,1.3-9c0,0,0,0,0,0l3.2-2.4L-86.6-446z"/>
	<path id="Path_4936" class="st7" d="M-131.5-439.8h248.3c3,0,5.5-2.5,5.5-5.5l0,0l0,0c0-3-2.5-5.5-5.5-5.5l0,0h-248.3
		c-3,0-5.5,2.5-5.5,5.5l0,0l0,0C-137-442.3-134.5-439.8-131.5-439.8L-131.5-439.8z"/>
	<rect id="Rectangle_1027" x="-95" y="-439.8" class="st7" width="4" height="50.2"/>
	<rect id="Rectangle_1028" x="168.6" y="-439.8" class="st7" width="4" height="50.2"/>
	<rect id="Rectangle_1029" x="108.4" y="-439.8" class="st7" width="4" height="50.2"/>
	<rect id="Rectangle_1030" x="-25" y="-439.8" class="st7" width="4" height="50.2"/>
	<rect id="Rectangle_1031" x="-95" y="-407.8" class="st7" width="183.5" height="4.2"/>
	<rect id="Rectangle_1032" x="84.6" y="-407.8" class="st7" width="88" height="4.2"/>
	<g id="Group_2596" transform="translate(38.097 123.855)">
		<circle id="Ellipse_9" class="st12" cx="-131.1" cy="-513.4" r="4.5"/>
		<circle id="Ellipse_10" class="st7" cx="-131.1" cy="-513.4" r="2.5"/>
	</g>
	<g id="Group_2597" transform="translate(109.455 125.249)">
		<path id="Path_4937" class="st12" d="M-137-514.8c0-2.5,2-4.5,4.5-4.5s4.5,2,4.5,4.5s-2,4.5-4.5,4.5S-137-512.3-137-514.8
			L-137-514.8z"/>
		<circle id="Ellipse_11" class="st7" cx="-132.5" cy="-514.8" r="2.5"/>
	</g>
	<g id="Group_2598" transform="translate(241.462 123.869)">
		<circle id="Ellipse_12" class="st12" cx="-131.1" cy="-513.5" r="4.5"/>
		<path id="Path_4938" class="st7" d="M-133.6-513.5c0-1.4,1.1-2.5,2.5-2.5c1.4,0,2.5,1.1,2.5,2.5c0,1.4-1.1,2.5-2.5,2.5
			C-132.5-510.9-133.6-512.1-133.6-513.5C-133.6-513.5-133.6-513.5-133.6-513.5z"/>
	</g>
	<path id="Path_4939" class="st7" d="M-127.9-493.9v45.5h5.6v-39.2L-127.9-493.9z"/>
	<path id="Path_4940" class="st13" d="M-44.2-491.3l21.2,8l-11.4,1.8l-7.8-5.3L-44.2-491.3z"/>
	<path id="Path_4941" class="st14" d="M-6.4-450.2C-5.5-449.9,7-467.9,5.4-473c-0.1-0.2-27-5.4-31.4-6.7c-9.8-2.8-21-12.7-26.5-13.7
		c-11.5-1.9-30.6,9.5-27.6,19.4c4.6,14.9,13.2,23.7,27.8,23.6C-51.8-450.4-7.3-450.5-6.4-450.2z"/>
	<g id="Group_2600" transform="translate(48.49)">
		<path id="Path_4942" class="st13" d="M-111.2-484.6c1.7-0.7,3.1-2,4-3.7c0.5-1.3-0.1-2.8-1.4-3.4c-0.2-0.1-0.4-0.1-0.6-0.2
			c-0.7-0.1-2.1-1.6-2.8-2.3c-1.3-1.3-2.6-2.5-4-3.6l-10.9,0.2c1.3,0.3,4.4,7.1,5.1,11C-121.2-483.1-114.3-483.1-111.2-484.6z"/>
		<path id="Path_4943" class="st15" d="M-112-494.1c-1.6-2.7-2.7-4.3-2.7-4.3l-9.9,3.2C-121.8-493.2-118.2-491.9-112-494.1z"/>
		<g id="Group_2599">
			<path id="Path_4944" class="st13" d="M-111.4-496.5c0,0-11.9,6.1-15.6-1.4s-7.7-11.7-0.2-15.9c7.4-4.2,10.3-2.1,12.2,0.1
				C-113.3-511.5-108.4-498.3-111.4-496.5z"/>
			<path id="Path_4945" class="st16" d="M-125.3-500.6c0,0-2.2-1.2-1.6-2.5s1.7,0.1,2.4-0.2s1.4-2.9,0.9-5s7.7-1.3,10.3-3.2
				c2.6-1.9,3.9-6.6-1.3-7.3c-3.1-0.4-18.6-2.5-21.6,5.6c-3.9,10.3,7.6,16.2,9.1,17.2s2.1,0.3,2.1,0.3S-123.8-499.1-125.3-500.6z"/>
		</g>
	</g>
	<path id="Path_4946" class="st14" d="M-55.4-493.6c0,0,5.8-0.9,16,2.8c-0.6,2-2,3.7-3.8,4.6C-46.4-484.4-55.4-493.6-55.4-493.6z"/>
	<path id="Path_4947" class="st12" d="M84.5-470.4c0,0-52,0.6-76.1-6.7c-14.2-4.4-28.9-6.7-43.7-6.8c0,0-15.8,16.4-19.6,31.4
		c-0.2,1-0.4,1.9-0.4,2.9v17.5c0,0,29.3-7.2,64.3,0c26.9,5.5,73.7,0,73.7,0L84.5-470.4z"/>
	<path id="Path_4948" class="st13" d="M-74.4-464.3c0,0,30,10.9,36.1,9.8S-16-472.9-16-472.9l-3.1-2.2l-20.8,11.3
		c0,0-19.1-10.1-27.2-15.3C-71.5-481.8-76.8-465.3-74.4-464.3z"/>
	<path id="Path_4949" class="st14" d="M-54-471.6c-1.6,6.2-5.7,11.5-11.4,14.5c-1.1,0.6-2,1.6-3,0.7c-3.3-3.1-10-10-11.7-17.6
		c0.1-1,0.5-1.9,1.2-2.6c2-1.9,7.2-5.8,11.6-4.7c3.8,1,9.9,4.5,13.1,6.5C-53.2-474.1-53.7-472.9-54-471.6z"/>
	<path id="Path_4950" class="st13" d="M-19.1-475.1c0,0,1.3-3.2,1.6-4s2.8-2.9,2.9-2.3s-0.9,1.9-0.5,1.9s1.9-2.7,2.9-2.7
		s0.5,3.6,0.1,5.2s-3.9,4.1-3.9,4.1L-19.1-475.1z"/>
	<path id="Rectangle_1033" class="st7" d="M87-483.9h77.1c6,0,10.9,4.9,10.9,10.9v22.4c0,6-4.9,10.9-10.9,10.9H87
		c-6,0-10.9-4.9-10.9-10.9v-22.4C76.2-479.1,81-483.9,87-483.9z"/>
</g>
<g id="Group_2608" transform="translate(177.547 686.453)">
	<g id="Group_2605" transform="translate(0 16.174)">
		<rect id="Rectangle_1034" x="-134.1" y="-499.2" class="st7" width="2.4" height="37.9"/>
		<rect id="Rectangle_1035" x="-134.1" y="-472.2" class="st7" width="52.3" height="2.4"/>
		<rect id="Rectangle_1036" x="-84.2" y="-499.2" class="st7" width="2.4" height="37.9"/>
		<rect id="Rectangle_1037" x="-101.6" y="-499.2" class="st7" width="2.4" height="37.9"/>
		<g id="Group_2602" transform="translate(0 56.358)">
			<path id="Path_4951" class="st12" d="M-137-515.3c0-2.2,1.8-4.1,4.1-4.1s4.1,1.8,4.1,4.1c0,2.2-1.8,4.1-4.1,4.1l0,0
				C-135.2-511.2-137-513-137-515.3z"/>
			<path id="Path_4952" class="st7" d="M-135.2-515.3c0-1.2,1-2.3,2.3-2.3s2.3,1,2.3,2.3c0,1.2-1,2.3-2.3,2.3
				S-135.2-514-135.2-515.3L-135.2-515.3z"/>
		</g>
		<g id="Group_2603" transform="translate(32.494 56.358)">
			<path id="Path_4953" class="st12" d="M-137-515.3c0-2.2,1.8-4.1,4.1-4.1s4.1,1.8,4.1,4.1s-1.8,4.1-4.1,4.1c0,0,0,0,0,0
				C-135.2-511.2-137-513-137-515.3z"/>
			<path id="Path_4954" class="st7" d="M-135.2-515.3c0-1.2,1-2.3,2.3-2.3s2.3,1,2.3,2.3s-1,2.3-2.3,2.3S-135.2-514-135.2-515.3
				L-135.2-515.3z"/>
		</g>
		<g id="Group_2604" transform="translate(49.945 56.358)">
			<path id="Path_4955" class="st12" d="M-137-515.3c0-2.2,1.8-4.1,4.1-4.1s4.1,1.8,4.1,4.1s-1.8,4.1-4.1,4.1c0,0,0,0,0,0
				C-135.2-511.2-137-513-137-515.3z"/>
			<path id="Path_4956" class="st7" d="M-135.2-515.3c0-1.2,1-2.3,2.3-2.3s2.3,1,2.3,2.3s-1,2.3-2.3,2.3c0,0,0,0,0,0
				C-134.2-513-135.2-514-135.2-515.3C-135.2-515.3-135.2-515.3-135.2-515.3z"/>
		</g>
		<rect id="Rectangle_1038" x="-116.7" y="-519.3" class="st17" width="34.9" height="25.7"/>
		<rect id="Rectangle_1039" x="-134.1" y="-519.3" class="st7" width="34.9" height="25.7"/>
	</g>
	<g id="Group_2606" transform="translate(8.78)">
		<path id="Path_4957" class="st18" d="M-127.2-512.9v9.8h-9.8v-9.8c0-0.1,0-0.2,0-0.3c0.1-1.1,0.8-2.1,1.8-2.5
			c0.7-0.3,1.2-1,1.2-1.7l0.1-1.4h3.6l0,1.4c0,0.8,0.5,1.4,1.2,1.7c1,0.4,1.7,1.4,1.8,2.5C-127.2-513.1-127.2-513-127.2-512.9z"/>
		<path id="Path_4958" class="st11" d="M-130-518.2h-4.2l0.1-1.1h4L-130-518.2z"/>
		<path id="Path_4959" class="st19" d="M-127.2-512.9v6.3h-9.8v-6.3c0-0.1,0-0.2,0-0.3h9.8C-127.2-513.1-127.2-513-127.2-512.9z"/>
	</g>
	<g id="Group_2607" transform="translate(21.21 7.127)">
		<path id="Path_4960" class="st18" d="M-131.5-515.8v5.5h-5.5v-5.5c0-0.1,0-0.1,0-0.2c0.1-0.6,0.4-1.1,1-1.4c0.4-0.2,0.7-0.5,0.7-1
			l0-0.8h2l0,0.8c0,0.4,0.3,0.8,0.7,1c0.6,0.2,1,0.8,1,1.4C-131.5-515.9-131.5-515.8-131.5-515.8z"/>
		<path id="Path_4961" class="st11" d="M-133.1-518.7h-2.4l0.1-0.6h2.2L-133.1-518.7z"/>
		<path id="Path_4962" class="st19" d="M-131.5-515.8v3.5h-5.5v-3.5c0-0.1,0-0.1,0-0.2h5.5C-131.5-515.9-131.5-515.8-131.5-515.8z"
			/>
	</g>
</g>
<g id="Group_2615" transform="translate(573.459 656.543)">
	<g id="Group_2610" transform="translate(27.35 20.427)">
		<path id="Path_4963" class="st7" d="M-130.9-510.7c0,0-3.6-4.2-0.2-6.8c1.3-0.8,2.9-1.3,4.5-1.4c0,0-2.8,4.8-1.9,5.2
			s2.8-5.5,2.8-5.5s5.6-0.5,7.4,0.3c0,0-4.8,3.9-3.8,4.1s6.2-3.6,6.2-3.6s5.2,0.9,4.9,4.1c-0.3,3.2-2.1,4.1-2.9,4.1
			s-5.4-1.8-5.5-1.2c-0.1,0.6,2.7,2.8,4.6,2.8c0,0-3.7,4-6.1,2.9s-2.6-3-4.2-3.7s-2.8-0.7-2.2,0s3.4,1.4,4.2,2.9s1.6,2.6-0.9,2.2
			s-6.6-2.2-6.8-4.3L-130.9-510.7z"/>
		<g id="Group_2609" transform="translate(0 5.142)">
			<path id="Path_4964" class="st7" d="M-113.7-519.3c0,0-14.1-0.5-17.2,3.5c-0.6,1.5-1.6,2.9-2.8,3.9l-0.3,0.9c0,0,2.4-2.6,3.3-2.7
				C-130.8-513.7-132.1-518.7-113.7-519.3z"/>
			<path id="Path_4965" class="st7" d="M-133.8-511.9c-1.9,1.5-3.1,3.8-3.2,6.2l0.6,0.1c0,0,1-4.1,2.7-5.8
				C-132-513-133.8-511.9-133.8-511.9z"/>
		</g>
	</g>
	<g id="Group_2612" transform="translate(0 9.089)">
		<path id="Path_4966" class="st20" d="M-116.1-504.6c0,0,5.7-3.2,3-7.5c0,0-2.1-2.7-4.4-3.3c0,0,1.2,6.5,0,6.6s-0.8-7.3-0.8-7.3
			s-6-2.9-8.4-2.7c0,0,3.7,6.3,2.5,6.2s-5.4-6.5-5.4-6.5s-6.1-1.1-7.1,2.5s0.6,5.5,1.5,5.7s6.8,0.2,6.6,0.9s-4.1,2-6.3,1.3
			c0,0,2.4,6,5.6,5.7s4.2-2.3,6.1-2.4s3.4,0.4,2.4,0.9s-4.3,0.2-5.9,1.5s-2.9,2.2,0.1,2.8s8.3,0.2,9.3-2.1L-116.1-504.6z"/>
		<g id="Group_2611" transform="translate(3.121 3.813)">
			<path id="Path_4967" class="st20" d="M-137-519.3c0,0,15.9,5.2,17.8,10.9c0.1,1.9,0.6,3.8,1.5,5.5v1.1c0,0-1.7-3.9-2.6-4.4
				C-120.3-506.1-116.7-511.1-137-519.3z"/>
			<path id="Path_4968" class="st20" d="M-117.7-502.9c1.5,2.5,1.9,5.5,1.1,8.3l-0.6-0.2c0,0,0.6-5-0.7-7.5
				S-117.7-502.9-117.7-502.9z"/>
		</g>
	</g>
	<g id="Group_2614" transform="translate(25.01)">
		<path id="Path_4969" class="st8" d="M-132.1-499.9c0,0-7.5-4.2-4-9.9c0,0,2.8-3.5,5.8-4.4c0,0-1.6,8.5,0,8.7s1.1-9.6,1.1-9.6
			s7.9-3.8,11-3.5c0,0-4.9,8.3-3.3,8.1s7.1-8.6,7.1-8.6s8.1-1.5,9.4,3.3c1.3,4.8-0.8,7.2-2,7.5s-8.9,0.2-8.7,1.2s5.4,2.6,8.3,1.7
			c0,0-3.2,7.9-7.4,7.5s-5.5-3-8.1-3.2s-4.5,0.5-3.2,1.2s5.7,0.2,7.8,2s3.8,2.9-0.1,3.7s-10.9,0.3-12.3-2.7L-132.1-499.9z"/>
		<g id="Group_2613" transform="translate(0.97 5.026)">
			<path id="Path_4970" class="st20" d="M-109.6-519.3c0,0-21,6.8-23.4,14.4c-0.1,2.6-0.8,5.1-2,7.3v1.5c0,0,2.2-5.1,3.4-5.8
				C-131.6-501.9-136.3-508.5-109.6-519.3z"/>
			<path id="Path_4971" class="st20" d="M-135-497.6c-1.9,3.3-2.5,7.2-1.4,10.9l0.8-0.2c0,0-0.8-6.6,0.9-9.9S-135-497.6-135-497.6z"
				/>
		</g>
	</g>
	<path id="Path_4972" class="st7" d="M-107.3-468.7c8.1,0,14.7-6.6,14.7-14.7H-122C-122-475.3-115.4-468.7-107.3-468.7z"/>
	<path id="Path_4973" class="st7" d="M-92.4-467.9h-29.8c0-1,0.8-1.8,1.8-1.8h26.2C-93.2-469.8-92.4-468.9-92.4-467.9z"/>
	<rect id="Rectangle_1040" x="-122.5" y="-483.4" class="st6" width="30.2" height="0.5"/>
</g>
<g id="Group_2617" transform="translate(506.239 582.405)">
	<path id="Path_4974" class="st21" d="M-103.9-491.2c0,0-8.2,1.4-10,6.3s-12.3,82.7-12.3,82.7s5.2,4.1,16.2,2.6
		S-103.9-491.2-103.9-491.2z"/>
	<path id="Path_4975" class="st22" d="M-116-337.9c0,1.4-0.2,2.7-0.7,3.2H-137c0.5-1.3,1.7-2.1,3.1-2.2c2.4-0.4,6.1-1.5,8.2-3.8
		c0.8-0.8,1.3-1.8,1.6-2.9c1-4.2,7.9,1.3,7.9,1.3C-116.1-340.8-116-339.4-116-337.9z"/>
	<path id="Path_4976" class="st22" d="M-84.8-337.9c0,1.4-0.2,2.7-0.7,3.2h-20.3c0.5-1.3,1.7-2.1,3.1-2.2c2.4-0.4,6.1-1.5,8.2-3.8
		c0.8-0.8,1.3-1.8,1.6-2.9c1-4.2,7.9,1.3,7.9,1.3C-84.8-340.8-84.8-339.4-84.8-337.9z"/>
	<path id="Path_4977" class="st23" d="M-124.8-340c2.3,0.7,6.6,2.9,9.3,1.9c1.8-0.7,11.7-29.4,12.4-42c0.1-1.3,0.3-2.5,0.5-3.7
		c0.6-3.2,1.6-7.7,2.8-12.6c3.2-13.2,7.5-29.7,7.4-34.9c-0.1-8.2-24.4-1.7-24.4-1.7c-1.2,5.4-1.9,10.9-2,16.4
		c-0.7,19.3-2.5,51.9-7.4,74.5C-126.3-341.2-125.7-340.3-124.8-340z"/>
	<path id="Path_4978" class="st24" d="M-107.9-431.3l11.7,91c0,0,7.5,1,11.9-0.1c0,0,3-47.2,2.7-59.1s2.7-31.9-0.7-34.1
		S-107.9-431.3-107.9-431.3z"/>
	<path id="Path_4979" class="st19" d="M-80.8-487c0,0-13.5-8.7-23.1-4.3c-1.5,0.7-3.3,2.7-4.6,4.1c-3.5,3.8-10.3,64.9-10.3,64.9
		s19.4,6.6,38-2.2V-487z"/>
	<path id="Path_4980" class="st21" d="M-104.6-491.4c0,0-13.6,5.6-15.5,9.9s-7.8,30.6-7.8,33.7s10.4,0.7,12.1-4.3
		c1.4-4.1,6.1-16.9,8.6-24.9L-104.6-491.4z"/>
	<g id="Group_2616" transform="translate(29.572)">
		<path id="Path_4981" class="st13" d="M-131.4-487.2c3.7,0.6,7.4-0.2,10.5-2.1c-1.1-2.5-1.9-5.2-2.2-7.9c0-0.1,0-0.2,0-0.3
			c-0.1-0.6-0.1-1.2,0-1.8h-7.7c0,0-2.1,1-2.1,1.6c0,0.4,0,0.7,0,1c0,0.9-0.1,1.7-0.1,2.3c-0.1,1.1-0.2,2.1-0.4,3.2
			C-133.4-491.2-134.4-487.8-131.4-487.2z"/>
		<path id="Path_4982" class="st25" d="M-133-494.4c3.6,0.8,7.4-0.2,10-2.9c0.1-0.1,0.2-0.2,0.2-0.2c-0.1,0-0.1-0.1-0.2-0.1
			c-2.2-0.9-7.1-0.2-9.8,0.8C-133-495.8-133-495-133-494.4z"/>
		<path id="Path_4983" class="st13" d="M-121.2-500.6c-1,5.6-8.3,5.4-11.4,5.1c-0.9-0.1-1.4-0.2-1.4-0.2c-1-0.3-1.5-1.8-1.8-3.9
			c-0.5-4,0.1-10,0.8-11.5c1-2.3,3-4.8,10.3-3S-119.8-507.8-121.2-500.6z"/>
		<path id="Path_4984" class="st22" d="M-135.3-514.3c1.4-1.7,3.1-3.1,5-4.1c4.1-2.2,9.4,0.1,9.4,0.1c5.9,2.6,7.5,7.2,4.3,14.3
			c-3.3,7.5-6.5,6.7-6.5,6.7s0.7-0.4,0.6-2.8c0-0.1,0-0.2,0-0.3c0-0.5,0.1-1,0.5-1.3c0.7-0.7,1.1-2.7,0.5-3.2
			c-0.7-0.7-1.8,0.1-2.1,0.8c-0.3,0.4-0.8,0.6-1.3,0.3c0,0,0,0-0.1,0c-1.9-1.2-0.6-3.5-2.4-4.9s-5.4-0.2-8-1.4
			C-138.8-511.5-136-513.2-135.3-514.3z"/>
	</g>
	<path id="Path_4985" class="st21" d="M-106.5-396.6c1.2,0.3,2.3,0.5,3.5,0.7c1,0.2,2,0.3,3.1,0.4c5.8,0.5,11.5-0.3,18.3-2.2
		c1.5-0.4,3.1-0.9,4.7-1.5c0.2-0.1-0.4-17.9-1.2-36.4c-0.1-1.9-0.1-3.8-0.2-5.7c0-0.8-0.1-1.6-0.1-2.4c-0.6-16.3-1.3-31.1-1.4-31.8
		c-0.3-1.8-0.6-3.3-0.9-4.7c-0.9-3.9-2.1-6-4.6-7.8c-0.2-0.2-2.2-1.2-4-2.1c-1.5-0.7-2.8-1.4-2.8-1.4l0,0c-0.6,0.3-1.3,1.6-2,3.5
		c-1.5,4.1-2.8,8.4-3.8,12.6c0,0,0,0,0,0l0,0c-0.6,2.5-1.1,4.5-1.2,5.1c-0.2,1-0.5,2.8-0.9,5.3c-0.5,3.4-1,8.1-1.6,13.3
		c-0.1,0.5-0.1,1.1-0.2,1.6c-0.1,0.6-0.1,1.3-0.2,1.9c0,0.2,0,0.4-0.1,0.6c-0.2,2.1-0.5,4.2-0.7,6.4c-0.2,1.8-2.9,3.1-3.1,5
		c-0.1,1.1-0.3,11.1-0.6,14.2C-106.8-419.4-106.6-397.6-106.5-396.6z"/>
	<path id="Path_4986" class="st26" d="M-86.7-468.9c0,0,0.5,16.5-11.9,18.5s-4.2,2.5-4.2,2.5s23.3-1,23.7-1.6
		S-86.7-468.9-86.7-468.9z"/>
	<path id="Path_4987" class="st26" d="M-97.1-443.4c0,0,0.2,0.2,0.7,0.5c0,0,0,0,0,0c4.9,3,10.1,5.2,15.7,6.7
		c0.9,0.2,1.7,0.5,2.7,0.7c-0.1-1.9-0.1-3.8-0.2-5.7c1-0.1,2.1-0.2,3.1-0.4c0-0.3-0.1-0.5-0.1-0.8c-1-0.4-2.1-0.8-3.1-1.2
		c-0.8-0.3-1.6-0.6-2.3-0.9c-3.4-1.3-5.8-2.1-5.8-2.1l-9.9,3.1L-97.1-443.4z"/>
	<path id="Path_4988" class="st21" d="M-99.7-443.7c0,0,1.3,0.3,3.3,0.7c0,0,0,0,0,0c5.2,1.1,10.4,1.7,15.7,1.8c0.8,0,1.6,0,2.4-0.1
		c1-0.1,2.1-0.2,3.1-0.4c1.8-0.3,3.5-1.1,4.9-2.3c8.4-8.5-4.6-39.1-7.3-42.1c-3.2-3.5-9-4.7-12.2-5.1l-0.4,0
		c-1.1-0.1-1.8-0.2-1.9-0.2l0,0c0,0,0.2,0.8,0.7,2.2c0.2,0.5,0.4,1.1,0.6,1.8c2,6.4,5.8,19.1,7.4,26.2c0.6,2.6,0.9,4.5,0.8,5
		c-0.7,2.4-7.4,3.7-11.7,4.2c-1.8,0.2-3.1,0.3-3.4,0.4c0,0,0,0-0.1,0l-0.2,1l-0.6,2.4l-0.6,2.4L-99.7-443.7z"/>
	<path id="Path_4989" class="st22" d="M-123.1-429l28.7-1.2l-5.8-35.8l-28.7,1.2L-123.1-429z"/>
	<path id="Path_4990" class="st13" d="M-97.8-451.6c0,0-5.6-0.4-5.9,0.9c-0.7,3,4.8,5.5,6.6,5.4S-96.5-451.8-97.8-451.6z"/>
	<path id="Path_4991" class="st13" d="M-127.3-457.5c0,0,5.3-1.7,5.9-0.5c1.3,2.8-3.4,6.5-5.2,6.7S-128.6-457.4-127.3-457.5z"/>
	<path id="Path_4992" class="st26" d="M-92.6-493.2c0,0,2.7,0.5,3.8,2.2c0,0-9.1,15.9-9.1,15.8S-94.9-491.2-92.6-493.2z"/>
	<path id="Path_4993" class="st26" d="M-103.6-493c-1.1,0.6-2,1.5-2.6,2.7l-1,13.3c0,0,2.2-9.8,3.4-14.2
		C-103.7-491.8-103.6-492.4-103.6-493z"/>
	<path id="Path_4994" class="st27" d="M-109.7-465.6c-0.2-0.6-0.9-1-1.5-0.9c-1.3,0.1-8.7,0.5-8.7,0.5s-1.4,0-1.3,0.9L-109.7-465.6z
		"/>
</g>
<path id="Path_4995" class="st19" d="M248.6,97.8l0.4,3.2h1l0.3-3.2H248.6z"/>
<g id="Group_2618" transform="translate(351.921 620.378)">
	<path id="Path_4996" class="st19" d="M-116.5-449c-3.1-0.1-6.2-0.6-9.2-1.6c-4-1.3-7.8-3-11.3-5.1l0.3-0.6
		c0.2,0.1,20.2,12.1,29,3.5c6.7-6.5,7.7-24.2,7.4-37.9c-0.3-9.6-1-19.1-2.3-28.6l0.6-0.1c1.3,9.5,2.1,19.1,2.3,28.7
		c0.5,20.2-2.1,33.1-7.6,38.4C-109.4-450.1-112.6-449-116.5-449z"/>
</g>
<path id="Path_4997" class="st19" d="M213.4,165.8L213.4,165.8c-0.3-0.5-0.1-1,0.3-1.3l1.7-1c0.5-0.3,1-0.1,1.3,0.3l0,0
	c0.3,0.5,0.1,1-0.3,1.3l-1.7,1C214.3,166.4,213.7,166.2,213.4,165.8z"/>
<g id="Group_2622" transform="translate(377.637 587.915)">
	<path id="Path_4998" class="st16" d="M-72.4-514.1c0-0.4,0.3-5,7.4-5.3c0,0-3.4,0.4-4,1.9c0,0,2.3-1.9,4.3-1.3s3,4,3,5.1
		s-1.1,4.7-2.3,5c-0.5,0.1-1,0.1-1.5,0c0.3,0.5,0.7,1.1,0.9,1.7c2.8,5.7-0.1,11.4-2.5,10.7c-1.5-0.4-1.9,2.2-1.9,2.2l-14.8-12
		C-83.7-506-78.3-517.2-72.4-514.1z"/>
	<path id="Path_4999" class="st13" d="M-112.6-442.2c1.2,1.1,4.5-2.7,5-3.2c0,0,0,0,0-0.1l-1-2.8c0,0-4.3-0.2-5,0.5
		S-114-443.4-112.6-442.2z"/>
	<path id="Path_5000" class="st13" d="M-108.6-448.2l0.4,2.9c0,0,0.2,0,0.5,0c1-0.1,3.6-0.2,6.5-0.5c2.8-0.2,5.5-0.7,8.2-1.3
		c1.1-0.2,2.3-0.6,3.3-1.2c3.1-1.9,8.2-7.7,11.5-13.5c0.1-0.1,0.2-0.3,0.2-0.4c1.1-1.8,1.9-3.8,2.5-5.8c0.3-0.9,0.4-1.9,0.5-2.8
		c0.1-1.3-0.1-2.6-0.4-3.9c-0.3-1.3-0.9-2.5-1.8-3.5c-0.1-0.1-0.2-0.3-0.3-0.4c-0.6-0.8-1.4-1.4-2.3-1.9c-0.5-0.2-1.1,0-1.4,0.4
		c-0.1,0-0.1,0.1-0.2,0.1c0,0,0,0,0,0c-0.1,0.1-0.1,0.1-0.2,0.2v0c-0.2,0.2-0.4,0.4-0.6,0.7c0,0,0,0,0,0c-0.4,0.6-0.8,1.1-1.1,1.7
		c0,0,0,0,0,0.1c-0.1,0.2-0.2,0.5-0.4,0.7c0,0-0.1,0.1-0.1,0.2c-0.3,0.5-0.5,1.1-0.8,1.7c-2.9,6.4-6,16-8.6,18.9
		c-1.4,1.1-2.9,2-4.5,2.8l0,0l-0.1,0.1l0,0c-1.8,0.9-3.8,1.8-5.6,2.6C-106.2-449.2-108.6-448.2-108.6-448.2z"/>
	<path id="Path_5001" class="st21" d="M-97.7-453c0.5,1.2,1.1,2.3,1.8,3.3c0.8,1.3,1.9,2.4,3.2,3.1c1-0.5,2.7-1.2,3.5-1.6
		c2.7-1.6,6.5-6.3,9.7-11.3c0.5-0.8,0.9-1.5,1.4-2.3c0.1-0.1,0.2-0.3,0.2-0.4c1.1-1.8,1.9-3.8,2.5-5.8l-5.7-12.2l0,0
		c0,0-0.1,0.1-0.2,0.2c0,0,0,0,0,0c-0.2,0.2-0.4,0.5-0.8,0.9c0,0,0,0,0,0c-0.4,0.6-0.8,1.1-1.1,1.7c0,0,0,0,0,0.1
		c-0.1,0.2-0.2,0.5-0.4,0.7c0,0-0.1,0.1-0.1,0.2c-0.3,0.5-0.5,1.1-0.8,1.7c-2.9,6.4-6,16-8.6,18.9c-1.4,1.1-2.9,2-4.5,2.8l0,0
		C-97.6-453.1-97.6-453-97.7-453z"/>
	<path id="Path_5002" class="st26" d="M-95.9-449.7c0.8,1.3,1.9,2.4,3.2,3.1c1-0.5,2.7-1.2,3.5-1.6c2.7-1.6,6.5-6.3,9.7-11.3
		c-0.1-1.6-8.4,6.5-9.4,8C-89.8-450.5-93.8-449.9-95.9-449.7z"/>
	<path id="Path_5003" class="st24" d="M-77.5-344.8l3.1,1.2c0,0,13.6-18.9,15.3-35.5c0.3-2.8,0.2-5.7-0.4-8.5c0,0,0.1-0.8,0.4-2.1
		c0.1-0.6,0.2-1.4,0.4-2.2c0.4-2.5,1.1-6,1.7-10c1.6-9.1,3.7-20.7,5.3-29.3l-0.8-0.3l-9.1-2.9l-1.9-6l-6.8-1.8c0,0-1.5,3-2.9,17
		c-0.3,1.8-0.5,3.9-0.7,6.1c-0.6,8.2-0.4,16.5,0.6,24.6c0.3,2.4,0.7,5,1.2,7.6c0.4,2.5,0.5,5,0.3,7.5
		C-72.5-365.9-77.5-344.8-77.5-344.8z"/>
	<path id="Path_5004" class="st23" d="M-74-419.1l14.8,29.4c0.1-0.6,0.2-1.4,0.4-2.2c0.4-2.5,1.1-6,1.7-10
		c1.6-9.1,3.7-20.7,5.3-29.3l-0.8-0.3l-9.1-2.9l-1.9-6l-6.8-1.8c0,0-1.5,3-2.9,17C-73.6-423.4-73.8-421.3-74-419.1z"/>
	<path id="Path_5005" class="st24" d="M-67.5-438.5l0.3-2.9c5.7,1.5,21.1-4.3,21.1-4.3s5.6,4.9,4.8,16.6c-0.4,5.7-1,30-1.7,37.2
		c-0.2,2.6-0.5,4.5-0.5,5.2c0,0,0,0,0,0c0,0.2,0,0.4,0.2,0.6c1,1.7,1.8,3.4,2.5,5.3c6.7,17.8-1,39.6-1,39.6l-2-0.8
		c0,0-4.4-24.3-7.9-35.1c-0.4-1.4-1-2.8-1.7-4.1c-1.5-2.5-3-6.6-4.3-11.4c-2.5-10-4.4-20.1-5.8-30.3
		C-63.7-422.9-67.5-438.5-67.5-438.5z"/>
	<path id="Path_5006" class="st13" d="M-71.8-472.5c9.9,0.5,7.7-14.2,7.1-14.1c-1.2-0.6-3.4-3.7-4.6-8.8l-0.4,0.2l-7.1,3.3
		c0,0,0.8,2.3,1.3,4.5c0.4,1.7,0.7,3.4,0.5,3.9c-0.6,0.2-0.9,0.4-0.9,0.4c0,0,0,0,0,0C-76-482.9-74.4-472.7-71.8-472.5z"/>
	<path id="Path_5007" class="st28" d="M-76.9-491.9c0,0,0.8,2.3,1.3,4.5c4.2-1.2,5.4-5.5,5.8-7.9L-76.9-491.9z"/>
	<path id="Path_5008" class="st13" d="M-77.8-489.4c0,0,9.9-2.3,8.4-8.5s-1.3-10.6-7.7-9.4s-7.1,3.9-7.1,6.1S-80.4-489-77.8-489.4z"
		/>
	<path id="Path_5009" class="st16" d="M-84.6-504.8c1.1-2.2,2.3-2.1,3.1-1.7c2.5-2.5,6.4-2.8,9.3-0.8c1.1,2.6,3.1,4.7,5.6,6
		c0,0-1.5,1.6-6,1.5c-1.4-0.1-2.8-0.6-4-1.5c1.5,1.5,3.3,2.8,5.2,3.9c-5.5-1.1-9.3-7.5-9.6-8.2c-0.7,1-1.2,2.2-1.4,3.4
		c-0.1,1.7,0.5,5-0.5,5.1C-83-497-86.2-501.4-84.6-504.8z"/>
	<path id="Path_5010" class="st22" d="M-53.4-339.5h15.8c0.2-1.4,0.1-2.9-0.4-4.2c-0.8-1.8-2-2.6-1.7-4.7c-1.2,1.4-3.1,2.1-4.9,1.9
		c-0.8,1.3-1.7,2.5-2.7,3.6C-48.5-342.2-53.1-342.5-53.4-339.5z"/>
	<path id="Path_5011" class="st22" d="M-87.3-339.5h15.8c0.3-1.4,0.2-2.9-0.4-4.2c-0.9-1.5-0.6-2.4,0.1-3.6
		c-0.8,0.4-1.7,0.5-2.7,0.5c-0.8-0.1-1.6-0.4-2.3-0.8c-1.4,1.7-2.9,3.2-4.5,4.7C-82.4-342.2-87-342.5-87.3-339.5z"/>
	<path id="Path_5012" class="st21" d="M-81.1-480.3l2.6,34.8l1.6,21.3c2.4,0.8,4.8,1.3,7,1.8c0.1-1.3,0.4-2.6,0.7-3.9
		c0,1.1,1.3,3.3,2.1,4.4c20.2,3.2,29.7-5.6,29.7-5.6c-0.8-7.8-4.2-23.6-8.3-36.9c-0.8-2.8-1.7-5.4-2.6-7.8
		c-1.3-3.6-2.7-7.2-4.4-10.7c-2.1-4.3-11.3-4-11.3-4c-1.2,4-3.5,7.7-6.7,10.5c-2.6-1.5-4.6-6.9-4.6-6.9L-81.1-480.3z"/>
	<path id="Path_5013" class="st29" d="M-66.2-488c0,0,1.7,0.1,2,1.2c0,0-2.2,8.8-6.7,10.5L-66.2-488z"/>
	<path id="Path_5014" class="st29" d="M-70.8-476.4c0,0-4.2-7-4.2-8c0,0-1.7,0.7-1.6,1.7C-76.6-482.7-73-476.9-70.8-476.4z"/>
	<path id="Path_5015" class="st26" d="M-59.3-479.5c-0.1,0.4-15.3,24.6-15.6,29.4s6.4,2.1,6.5,1.5S-59.3-479.5-59.3-479.5z"/>
	<path id="Path_5016" class="st26" d="M-78.5-445.5l1.6,21.3c21.7-6.2,22.9-52,22.9-52L-67.5-452l-10.9,6.3
		C-78.4-445.7-78.4-445.6-78.5-445.5z"/>
	<path id="Path_5017" class="st13" d="M-88.2-443.5l0.8,3c0,0,1-0.2,2.7-0.5c0.5-0.1,0.8-0.2,0.8-0.2c1.3-0.3,2.9-0.6,4.7-1h0
		c3-0.7,6.3-1.6,9.1-2.5c0.3-0.1,0.5-0.2,0.7-0.3c1.4-0.5,2.8-1.1,4.1-1.9c0.1-0.1,0.2-0.2,0.3-0.2c2.8-2,6.1-8,8.6-14.3
		c0.4-0.9,0.7-1.8,1-2.6c1.1-2.9,2-6,2.7-9c0.3-1.4,0.5-2.9,0.6-4.3c0-0.4,0-0.8,0-1.2c0-6.9-4.9-7.6-5.6-6.8
		c-1,1.4-1.9,2.9-2.5,4.5c-1.4,3.1-2.8,7-4.1,11c-0.7,2.2-1.4,4.3-2.2,6.3c-0.4,1.2-0.8,2.3-1.2,3.4c-0.5,1.6-1.2,3.1-2,4.6
		c-0.8,1-1.8,1.9-2.9,2.6c-0.4,0.3-0.8,0.6-1.2,0.9c-2.4,1.6-5.5,3.4-8.2,5c-1.3,0.8-2.6,1.4-3.6,2C-87-444.1-88.2-443.5-88.2-443.5
		z"/>
	<path id="Path_5018" class="st21" d="M-73.5-452.1c0,3.6,2,6.9,5.2,8.5c6.2-2.2,9.5-11.5,12.1-17.9c0.4-0.9,0.7-1.8,1-2.6
		c1.1-2.9,2-6,2.7-9c0.3-1.4,0.5-2.9,0.6-4.3c0-0.4,0-0.8,0-1.2c0-6.9-4.9-7.6-5.6-6.8c-1,1.4-1.9,2.9-2.5,4.5
		c-1.4,3.1-2.8,7-4.1,11c-0.7,2.2-1.4,4.3-2.2,6.3c-0.4,1.2-0.8,2.3-1.2,3.4c-0.5,1.6-1.2,3.1-2,4.6c-0.8,1-1.8,1.9-2.9,2.6
		C-72.7-452.6-73.1-452.4-73.5-452.1z"/>
	<path id="Path_5019" class="st21" d="M-97.7-453.1C-97.7-453.1-97.7-453-97.7-453.1C-97.7-453.1-97.7-453.1-97.7-453.1
		C-97.7-453.1-97.7-453.1-97.7-453.1z"/>
	<g id="Group_2621" transform="translate(0 0)">
		<g id="Group_2620">
			<rect id="Rectangle_1041" x="-111.5" y="-519.3" class="st19" width="4.1" height="178.2"/>
			<g id="Group_2619" transform="translate(2.83 6.334)">
				<path id="Rectangle_1042" class="st19" d="M-130.4-495.9L-130.4-495.9c-3.7,0-6.6-3-6.6-6.6l0,0v-16.8l0,0h13.2l0,0v16.8
					C-123.8-498.9-126.7-495.9-130.4-495.9C-130.4-495.9-130.4-495.9-130.4-495.9z"/>
				<path id="Rectangle_1043" class="st7" d="M-130.5-497.1L-130.5-497.1c-3.1,0-5.6-2.5-5.6-5.6v-3.6l0,0h11.1l0,0v3.6
					C-125-499.6-127.4-497.1-130.5-497.1z"/>
			</g>
			<rect id="Rectangle_1044" x="-137" y="-519.3" class="st19" width="29.6" height="3.2"/>
			<rect id="Rectangle_1045" x="-128.8" y="-516.1" class="st19" width="2.3" height="3.9"/>
		</g>
		<rect id="Rectangle_1046" x="-120.6" y="-344.7" class="st19" width="23.3" height="4.5"/>
	</g>
	<rect id="Rectangle_1047" x="-111.5" y="-447.3" class="st19" width="19" height="8.3"/>
	<rect id="Rectangle_1048" x="-109.4" y="-445.8" class="st7" width="15.5" height="4.2"/>
	<path id="Path_5020" class="st13" d="M-97.3-443.8c1.5,0,3.1-0.1,4.6-0.6c0,0-3.8-0.1-3-1.3c0.1-0.2,2-0.1,4.2-0.1
		c1,0.2,2,0.6,2.9,1.2c1.5-0.2,2.9-0.5,3.4-0.6c0.1,0,0.1,0,0.2,0l1.4,3.9c0,0-0.3,0.1-0.8,0.2c-2.1,0.5-4.2,1.2-6.3,1.9
		c-2.4,1-5.3,0.4-7.1-1.5c-0.7-0.6-1.2-1.5-1.3-2.5C-99.2-443.9-98.1-443.8-97.3-443.8z"/>
</g>
<g class="st30">
	<path d="M3.1,159H8v1.6H1.2v-9.2h1.9V159z"/>
	<path d="M17.2,151.3v5.6c0,1.3-0.3,2.2-1,2.8c-0.7,0.6-1.7,0.9-2.9,0.9c-1.3,0-2.3-0.3-2.9-0.9c-0.7-0.6-1-1.6-1-2.8v-5.6h1.9v5.5
		c0,0.8,0.2,1.3,0.5,1.7c0.3,0.4,0.8,0.6,1.5,0.6c0.7,0,1.2-0.2,1.5-0.6s0.5-0.9,0.5-1.7v-5.5H17.2z"/>
	<path d="M23.4,151.2c0.9,0,1.7,0.2,2.4,0.6c0.7,0.4,1.2,0.9,1.5,1.6s0.5,1.6,0.5,2.5s-0.2,1.8-0.5,2.5c-0.4,0.7-0.9,1.3-1.5,1.6
		c-0.7,0.4-1.5,0.6-2.4,0.6s-1.7-0.2-2.4-0.6c-0.7-0.4-1.2-0.9-1.5-1.6c-0.4-0.7-0.5-1.6-0.5-2.5s0.2-1.8,0.5-2.5s0.9-1.3,1.5-1.6
		C21.7,151.4,22.5,151.2,23.4,151.2z M23.4,152.8c-0.5,0-1,0.1-1.3,0.4c-0.4,0.2-0.6,0.6-0.8,1.1c-0.2,0.5-0.3,1.1-0.3,1.7
		c0,0.7,0.1,1.3,0.3,1.7c0.2,0.5,0.5,0.8,0.8,1.1c0.4,0.2,0.8,0.4,1.3,0.4s1-0.1,1.3-0.4c0.4-0.2,0.6-0.6,0.8-1.1
		c0.2-0.5,0.3-1.1,0.3-1.7c0-0.7-0.1-1.3-0.3-1.7c-0.2-0.5-0.5-0.8-0.8-1.1C24.4,152.9,23.9,152.8,23.4,152.8z M25.8,150.3h-1.4
		l-1-1.4l-1,1.4H21l1.5-2.3h1.9L25.8,150.3z"/>
	<path d="M37.7,151.3v9.2h-2.2l-3.2-5.4l-0.8-1.5h0l0.1,1.6v5.3h-1.7v-9.2H32l3.2,5.4l0.8,1.5h0l-0.1-1.6v-5.3H37.7z"/>
	<path d="M46.4,159h4.9v1.6h-6.8v-9.2h1.9V159z"/>
	<path d="M51.8,160.6l3.4-9.2h2.3l3.4,9.2h-2l-2.1-6.3l-0.4-1.4h0l-0.4,1.4l-2.1,6.3H51.8z M53.8,158.3v-1.4h5.1v1.4H53.8z
		 M58.7,150.4h-1.4l-1-1.3l-1,1.3h-1.4l1.5-2.3h1.8L58.7,150.4z M59.1,146.8h1.6l-1.1,2h-1.3L59.1,146.8z"/>
	<path d="M68.4,151.3l-3.3,5.8v3.5h-1.9v-3.5l-3.3-5.8H62l1.5,2.8l0.7,1.5l0.7-1.5l1.5-2.8H68.4z"/>
	<path d="M73.5,160.6v-9.2h4c1.1,0,1.9,0.2,2.5,0.7c0.5,0.4,0.8,1.1,0.8,1.9c0,0.5-0.1,0.9-0.4,1.3c-0.3,0.4-0.7,0.6-1.3,0.7v0
		c0.6,0.1,1.1,0.3,1.5,0.7c0.3,0.4,0.5,0.9,0.5,1.4c0,0.8-0.3,1.4-0.9,1.9c-0.6,0.4-1.4,0.7-2.5,0.7H73.5z M75.4,155.2h1.9
		c1,0,1.5-0.4,1.5-1.2s-0.5-1.2-1.5-1.2h-1.9V155.2z M75.4,159.1h2.1c0.5,0,0.9-0.1,1.2-0.3c0.3-0.2,0.4-0.5,0.4-0.9
		c0-0.4-0.1-0.7-0.4-0.9c-0.3-0.2-0.6-0.3-1.2-0.3h-2.1V159.1z"/>
	<path d="M82.9,160.6v-9.2h6.9v1.6h-5v2.3h3.9v1.5h-3.9v2.4h5.2v1.6H82.9z M88.8,150.3h-1.4l-1-1.4l-1,1.4H84l1.5-2.3h1.9
		L88.8,150.3z M86.6,163.6c-0.4,0-0.6-0.1-0.8-0.3c-0.2-0.2-0.3-0.4-0.3-0.7c0-0.3,0.1-0.6,0.3-0.8c0.2-0.2,0.5-0.3,0.8-0.3
		c0.4,0,0.6,0.1,0.8,0.3c0.2,0.2,0.3,0.4,0.3,0.8c0,0.3-0.1,0.6-0.3,0.7C87.2,163.5,86.9,163.6,86.6,163.6z"/>
	<path d="M99.7,151.3v9.2h-2.2l-3.2-5.4l-0.8-1.5h0l0.1,1.6v5.3h-1.7v-9.2H94l3.2,5.4l0.8,1.5h0l-0.1-1.6v-5.3H99.7z"/>
	<path d="M104.1,151.3v9.2h-1.9v-9.2H104.1z M109.2,155.1v1.6h-6v-1.6H109.2z M110.1,151.3v9.2h-1.9v-9.2H110.1z"/>
	<path d="M124.7,151.3v9.2h-2.2l-3.2-5.4l-0.8-1.5h0l0.1,1.6v5.3h-1.7v-9.2h2.2l3.2,5.4l0.8,1.5h0l-0.1-1.6v-5.3H124.7z"/>
	<path d="M129.1,151.3v9.2h-1.9v-9.2H129.1z M134.1,155.1v1.6h-6v-1.6H134.1z M135.1,151.3v9.2h-1.9v-9.2H135.1z"/>
	<path d="M136.4,160.6l3.4-9.2h2.3l3.4,9.2h-2l-2.1-6.3l-0.4-1.4h0l-0.4,1.4l-2.1,6.3H136.4z M138.4,158.3v-1.4h5.1v1.4H138.4z
		 M143.4,150.3h-1.4l-1-1.4l-1,1.4h-1.4l1.5-2.3h1.9L143.4,150.3z"/>
	<path d="M154.8,151.3v9.2h-2.2l-3.2-5.4l-0.8-1.5h0l0.1,1.6v5.3h-1.7v-9.2h2.2l3.2,5.4l0.8,1.5h0l-0.1-1.6v-5.3H154.8z"/>
</g>
<g class="st30">
	<path d="M3.1,175H8v1.6H1.2v-9.2h1.9V175z"/>
	<path d="M8.6,176.6l3.4-9.2h2.3l3.4,9.2h-2l-2.1-6.3l-0.4-1.4h0l-0.4,1.4l-2.1,6.3H8.6z M10.6,174.3v-1.4h5.1v1.4H10.6z M13,164.1
		l0.9,2.3h-1.4l-1.2-2.3H13z"/>
	<path d="M29.1,167.3v9.2h-1.7v-4.8l0.1-2.7h0l-2.6,7.5h-1.6l-2.5-7.5h0l0.1,2.7v4.8H19v-9.2h2.8l1.7,5l0.6,2.1h0l0.6-2.1l1.7-5.1
		H29.1z"/>
	<path d="M42.8,167.3v1.6h-3.1v7.7h-1.9v-7.7h-3.1v-1.6H42.8z"/>
	<path d="M48.4,167.3c1,0,1.9,0.3,2.5,0.8c0.6,0.5,0.9,1.2,0.9,2c0,0.9-0.3,1.6-0.9,2.1c-0.6,0.5-1.4,0.7-2.5,0.7l-0.2,0.1h-2v3.5
		h-1.9v-9.2H48.4z M48.2,171.5c0.5,0,0.9-0.1,1.2-0.3c0.3-0.2,0.4-0.6,0.4-1c0-0.5-0.1-0.8-0.4-1c-0.3-0.2-0.7-0.3-1.2-0.3h-1.9v2.7
		H48.2z M49.3,171.9l3,4.6h-2.2l-2.5-4L49.3,171.9z"/>
	<path d="M57.8,167.2c0.9,0,1.7,0.2,2.4,0.6c0.7,0.4,1.2,0.9,1.5,1.6s0.5,1.6,0.5,2.5s-0.2,1.8-0.5,2.5c-0.4,0.7-0.9,1.3-1.5,1.6
		c-0.7,0.4-1.5,0.6-2.4,0.6s-1.7-0.2-2.4-0.6c-0.7-0.4-1.2-0.9-1.5-1.6c-0.4-0.7-0.5-1.6-0.5-2.5s0.2-1.8,0.5-2.5s0.9-1.3,1.5-1.6
		C56.1,167.4,56.9,167.2,57.8,167.2z M57.8,168.8c-0.5,0-1,0.1-1.3,0.4c-0.4,0.2-0.6,0.6-0.8,1.1c-0.2,0.5-0.3,1.1-0.3,1.7
		c0,0.7,0.1,1.3,0.3,1.7c0.2,0.5,0.5,0.8,0.8,1.1c0.4,0.2,0.8,0.4,1.3,0.4s1-0.1,1.3-0.4c0.4-0.2,0.6-0.6,0.8-1.1
		c0.2-0.5,0.3-1.1,0.3-1.7c0-0.7-0.1-1.3-0.3-1.7c-0.2-0.5-0.5-0.8-0.8-1.1C58.7,168.9,58.3,168.8,57.8,168.8z M57.8,179.6
		c-0.4,0-0.6-0.1-0.8-0.3c-0.2-0.2-0.3-0.4-0.3-0.7c0-0.3,0.1-0.6,0.3-0.8c0.2-0.2,0.5-0.3,0.8-0.3c0.4,0,0.6,0.1,0.8,0.3
		c0.2,0.2,0.3,0.4,0.3,0.8c0,0.3-0.1,0.6-0.3,0.7C58.4,179.5,58.1,179.6,57.8,179.6z"/>
	<path d="M72.1,167.3v9.2h-2.2l-3.2-5.4l-0.8-1.5h0l0.1,1.6v5.3h-1.7v-9.2h2.2l3.2,5.4l0.8,1.5h0l-0.1-1.6v-5.3H72.1z"/>
	<path d="M78.3,176.7c-0.8,0-1.6-0.2-2.2-0.6c-0.6-0.4-1.1-0.9-1.5-1.6c-0.4-0.7-0.5-1.6-0.5-2.6c0-1,0.2-1.8,0.6-2.6
		c0.4-0.7,0.9-1.3,1.6-1.6c0.7-0.4,1.5-0.6,2.4-0.6c1,0,1.8,0.2,2.4,0.6c0.6,0.4,1.1,0.9,1.5,1.7l-1.8,0.8c-0.1-0.5-0.4-0.9-0.8-1.1
		c-0.4-0.2-0.8-0.4-1.3-0.4c-0.5,0-1,0.1-1.4,0.4c-0.4,0.2-0.7,0.6-0.9,1.1c-0.2,0.5-0.3,1-0.3,1.7c0,0.7,0.1,1.3,0.3,1.8
		c0.2,0.5,0.5,0.8,0.9,1.1c0.4,0.2,0.9,0.4,1.4,0.4c0.3,0,0.6,0,0.9-0.1c0.3-0.1,0.5-0.2,0.7-0.3c0.2-0.1,0.4-0.3,0.5-0.6
		c0.1-0.2,0.2-0.5,0.2-0.8v-0.2h-2.4v-1.4h4.1v4.9h-1.4l-0.1-2l0.3,0.2c-0.2,0.6-0.6,1.1-1.1,1.4C79.7,176.5,79.1,176.7,78.3,176.7z
		"/>
	<path d="M95.9,167.3v1.6h-3.1v7.7h-1.9v-7.7h-3.1v-1.6H95.9z"/>
	<path d="M95.3,176.6l3.4-9.2h2.3l3.4,9.2h-2l-2.1-6.3l-0.4-1.4h0l-0.4,1.4l-2.1,6.3H95.3z M97.3,174.3v-1.4h5.1v1.4H97.3z
		 M102.2,166.3h-1.4l-1-1.4l-1,1.4h-1.4l1.5-2.3h1.9L102.2,166.3z"/>
	<path d="M115.8,167.3v9.2H114v-4.8l0.1-2.7h0l-2.6,7.5h-1.6l-2.5-7.5h0l0.1,2.7v4.8h-1.8v-9.2h2.8l1.7,5l0.6,2.1h0l0.6-2.1l1.7-5.1
		H115.8z"/>
	<path d="M118.9,174.4c0.4,0,0.7,0.1,0.9,0.3s0.3,0.5,0.3,0.8c0,0.4-0.1,0.6-0.3,0.8c-0.2,0.2-0.5,0.3-0.9,0.3
		c-0.4,0-0.7-0.1-0.9-0.3c-0.2-0.2-0.3-0.5-0.3-0.8c0-0.3,0.1-0.6,0.3-0.8S118.6,174.4,118.9,174.4z"/>
</g>
<g class="st30">
	<path d="M423.1,167.8v-9.2h4c1.1,0,1.9,0.2,2.5,0.7s0.8,1.1,0.8,1.9c0,0.5-0.1,0.9-0.4,1.3c-0.3,0.4-0.7,0.6-1.3,0.7v0
		c0.6,0.1,1.1,0.3,1.5,0.7c0.3,0.4,0.5,0.9,0.5,1.4c0,0.8-0.3,1.4-0.9,1.9c-0.6,0.4-1.4,0.7-2.5,0.7H423.1z M425,162.5h1.9
		c1,0,1.5-0.4,1.5-1.2s-0.5-1.2-1.5-1.2H425V162.5z M425,166.4h2.1c0.5,0,0.9-0.1,1.2-0.3c0.3-0.2,0.4-0.5,0.4-0.9
		c0-0.4-0.1-0.7-0.4-0.9c-0.3-0.2-0.6-0.3-1.2-0.3H425V166.4z"/>
	<path d="M432.6,167.8v-9.2h6.9v1.6h-5v2.3h3.9v1.5h-3.9v2.4h5.2v1.6H432.6z M438.4,157.6H437l-1-1.4l-1,1.4h-1.4l1.5-2.3h1.9
		L438.4,157.6z M436.2,170.9c-0.4,0-0.6-0.1-0.8-0.3c-0.2-0.2-0.3-0.4-0.3-0.7c0-0.3,0.1-0.6,0.3-0.8c0.2-0.2,0.5-0.3,0.8-0.3
		c0.4,0,0.6,0.1,0.8,0.3c0.2,0.2,0.3,0.4,0.3,0.8c0,0.3-0.1,0.6-0.3,0.7C436.8,170.8,436.5,170.9,436.2,170.9z"/>
	<path d="M449.4,158.6v9.2h-2.2l-3.2-5.4l-0.8-1.5h0l0.1,1.6v5.3h-1.7v-9.2h2.2l3.2,5.4l0.8,1.5h0l-0.1-1.6v-5.3H449.4z"/>
	<path d="M453.7,158.6v9.2h-1.9v-9.2H453.7z M458.8,162.4v1.6h-6v-1.6H458.8z M459.7,158.6v9.2h-1.9v-9.2H459.7z"/>
	<path d="M473.9,158.6l-3.4,9.2h-2.3l-3.4-9.2h2l1.9,5.9l0.5,1.8l0.5-1.8l2-5.9H473.9z"/>
	<path d="M477.3,158.6v9.2h-1.9v-9.2H477.3z"/>
	<path d="M479.7,167.8v-9.2h6.9v1.6h-5v2.3h3.9v1.5h-3.9v2.4h5.2v1.6H479.7z M485.6,157.6h-1.4l-1-1.4l-1,1.4h-1.4l1.5-2.3h1.9
		L485.6,157.6z M483.3,170.9c-0.4,0-0.6-0.1-0.8-0.3c-0.2-0.2-0.3-0.4-0.3-0.7c0-0.3,0.1-0.6,0.3-0.8c0.2-0.2,0.5-0.3,0.8-0.3
		c0.4,0,0.6,0.1,0.8,0.3c0.2,0.2,0.3,0.4,0.3,0.8c0,0.3-0.1,0.6-0.3,0.7C483.9,170.8,483.7,170.9,483.3,170.9z"/>
	<path d="M496.5,158.6v9.2h-2.2l-3.2-5.4l-0.8-1.5h0l0.1,1.6v5.3h-1.7v-9.2h2.2l3.2,5.4l0.8,1.5h0l-0.1-1.6v-5.3H496.5z"/>
</g>
<g class="st30">
	<path d="M427.1,174.4c0.9,0,1.7,0.2,2.4,0.6s1.2,0.9,1.5,1.6s0.5,1.6,0.5,2.5s-0.2,1.8-0.5,2.5c-0.4,0.7-0.9,1.3-1.5,1.6
		s-1.5,0.6-2.4,0.6c-0.9,0-1.7-0.2-2.4-0.6c-0.7-0.4-1.2-0.9-1.5-1.6c-0.4-0.7-0.5-1.6-0.5-2.5s0.2-1.8,0.5-2.5s0.9-1.3,1.5-1.6
		C425.4,174.6,426.2,174.4,427.1,174.4z M427.1,176c-0.5,0-1,0.1-1.3,0.4c-0.4,0.2-0.6,0.6-0.8,1.1c-0.2,0.5-0.3,1.1-0.3,1.7
		c0,0.7,0.1,1.3,0.3,1.7c0.2,0.5,0.5,0.8,0.8,1.1c0.4,0.2,0.8,0.4,1.3,0.4c0.5,0,1-0.1,1.3-0.4c0.4-0.2,0.6-0.6,0.8-1.1
		c0.2-0.5,0.3-1.1,0.3-1.7c0-0.7-0.1-1.3-0.3-1.7c-0.2-0.5-0.5-0.8-0.8-1.1C428.1,176.1,427.7,176,427.1,176z M429.4,186.6
		c-0.6,0-1.1-0.1-1.5-0.3s-0.8-0.5-1.1-0.9c-0.3-0.4-0.4-0.9-0.4-1.6c0-0.1,0-0.3,0-0.5s0.1-0.3,0.2-0.5l1.3-0.2
		c-0.1,0.2-0.1,0.3-0.1,0.5c0,0.1,0,0.3,0,0.4c0,0.4,0.1,0.8,0.2,1c0.2,0.2,0.4,0.4,0.6,0.5c0.3,0.1,0.6,0.1,0.9,0.1
		c0.4,0,0.7,0,1-0.1s0.5-0.2,0.7-0.4l0.3,1.4c-0.2,0.2-0.5,0.3-0.9,0.4C430.2,186.6,429.8,186.6,429.4,186.6z"/>
	<path d="M441.2,174.6v5.6c0,1.3-0.3,2.2-1,2.8c-0.7,0.6-1.7,0.9-2.9,0.9s-2.3-0.3-2.9-0.9c-0.7-0.6-1-1.6-1-2.8v-5.6h1.9v5.5
		c0,0.8,0.2,1.3,0.5,1.7c0.3,0.4,0.8,0.6,1.5,0.6s1.2-0.2,1.5-0.6c0.3-0.4,0.5-0.9,0.5-1.7v-5.5H441.2z"/>
	<path d="M447.5,174.4c0.9,0,1.7,0.2,2.4,0.6c0.7,0.4,1.2,0.9,1.5,1.6s0.5,1.6,0.5,2.5s-0.2,1.8-0.5,2.5c-0.4,0.7-0.9,1.3-1.5,1.6
		c-0.7,0.4-1.5,0.6-2.4,0.6c-0.9,0-1.7-0.2-2.4-0.6s-1.2-0.9-1.5-1.6c-0.4-0.7-0.5-1.6-0.5-2.5s0.2-1.8,0.5-2.5s0.9-1.3,1.5-1.6
		S446.5,174.4,447.5,174.4z M447.5,176c-0.5,0-1,0.1-1.3,0.4c-0.4,0.2-0.6,0.6-0.8,1.1c-0.2,0.5-0.3,1.1-0.3,1.7
		c0,0.7,0.1,1.3,0.3,1.7c0.2,0.5,0.5,0.8,0.8,1.1c0.4,0.2,0.8,0.4,1.3,0.4c0.5,0,1-0.1,1.3-0.4c0.4-0.2,0.6-0.6,0.8-1.1
		c0.2-0.5,0.3-1.1,0.3-1.7c0-0.7-0.1-1.3-0.3-1.7c-0.2-0.5-0.5-0.8-0.8-1.1C448.4,176.1,448,176,447.5,176z M449.8,173.7h-1.4
		l-1-1.3l-1,1.3H445l1.5-2.3h1.8L449.8,173.7z M450.2,170.1h1.6l-1.1,2h-1.3L450.2,170.1z"/>
	<path d="M461.7,181.3c-0.2,0.6-0.5,1.1-0.8,1.5s-0.8,0.7-1.4,0.9c-0.5,0.2-1.1,0.3-1.7,0.3c-0.9,0-1.7-0.2-2.4-0.6
		s-1.2-0.9-1.5-1.6c-0.4-0.7-0.5-1.6-0.5-2.5s0.2-1.8,0.5-2.5s0.9-1.3,1.5-1.6s1.4-0.6,2.3-0.6c0.6,0,1.2,0.1,1.7,0.3
		c0.5,0.2,0.9,0.4,1.3,0.8s0.6,0.8,0.8,1.3l-1.8,0.7c-0.2-0.6-0.4-1-0.7-1.2c-0.3-0.2-0.7-0.4-1.3-0.4c-0.5,0-0.9,0.1-1.3,0.4
		c-0.4,0.2-0.7,0.6-0.9,1.1c-0.2,0.5-0.3,1.1-0.3,1.7c0,0.7,0.1,1.3,0.3,1.7c0.2,0.5,0.5,0.8,0.8,1.1c0.4,0.2,0.8,0.4,1.4,0.4
		c0.5,0,0.9-0.1,1.3-0.4c0.4-0.3,0.6-0.7,0.8-1.2L461.7,181.3z"/>
	<path d="M474.7,174.6v1.6h-3.1v7.7h-1.9v-7.7h-3.1v-1.6H474.7z"/>
	<path d="M476.3,183.8v-9.2h6.9v1.6h-5v2.3h3.9v1.5h-3.9v2.4h5.2v1.6H476.3z M482.1,173.7h-1.4l-1-1.3l-1,1.3h-1.4l1.5-2.3h1.8
		L482.1,173.7z M482.5,170.1h1.6l-1.1,2h-1.3L482.5,170.1z"/>
</g>
<g class="st30">
	<path d="M430.5,190.6v1.6h-3.1v7.7h-1.9v-7.7h-3.1v-1.6H430.5z"/>
	<path d="M434,190.6v9.2H432v-9.2H434z"/>
	<path d="M436.4,199.8v-9.2h6.9v1.6h-5v2.3h3.9v1.5h-3.9v2.4h5.2v1.6H436.4z M442.3,189.6h-1.4l-1-1.4l-1,1.4h-1.4l1.5-2.3h1.9
		L442.3,189.6z"/>
	<path d="M453,190.6v5.6c0,1.3-0.3,2.2-1,2.8c-0.7,0.6-1.7,0.9-2.9,0.9s-2.3-0.3-2.9-0.9c-0.7-0.6-1-1.6-1-2.8v-5.6h1.9v5.5
		c0,0.8,0.2,1.3,0.5,1.7c0.3,0.4,0.8,0.6,1.5,0.6s1.2-0.2,1.5-0.6c0.3-0.4,0.5-0.9,0.5-1.7v-5.5H453z"/>
	<path d="M467.4,197.3c-0.2,0.6-0.5,1.1-0.8,1.5s-0.8,0.7-1.4,0.9c-0.5,0.2-1.1,0.3-1.7,0.3c-0.9,0-1.7-0.2-2.4-0.6
		s-1.2-0.9-1.5-1.6c-0.4-0.7-0.5-1.6-0.5-2.5s0.2-1.8,0.5-2.5s0.9-1.3,1.5-1.6s1.4-0.6,2.3-0.6c0.6,0,1.2,0.1,1.7,0.3
		c0.5,0.2,0.9,0.4,1.3,0.8s0.6,0.8,0.8,1.3l-1.8,0.7c-0.2-0.6-0.4-1-0.7-1.2c-0.3-0.2-0.7-0.4-1.3-0.4c-0.5,0-0.9,0.1-1.3,0.4
		c-0.4,0.2-0.7,0.6-0.9,1.1c-0.2,0.5-0.3,1.1-0.3,1.7c0,0.7,0.1,1.3,0.3,1.7c0.2,0.5,0.5,0.8,0.8,1.1c0.4,0.2,0.8,0.4,1.4,0.4
		c0.5,0,0.9-0.1,1.3-0.4c0.4-0.3,0.6-0.7,0.8-1.2L467.4,197.3z"/>
	<path d="M471,190.6v9.2H469v-9.2H471z M476,194.4v1.6h-6v-1.6H476z M477,190.6v9.2H475v-9.2H477z"/>
	<path d="M487.1,190.6v5.6c0,1.3-0.3,2.2-1,2.8c-0.7,0.6-1.7,0.9-2.9,0.9s-2.3-0.3-2.9-0.9c-0.7-0.6-1-1.6-1-2.8v-5.6h1.9v5.5
		c0,0.8,0.2,1.3,0.5,1.7c0.3,0.4,0.8,0.6,1.5,0.6s1.2-0.2,1.5-0.6c0.3-0.4,0.5-0.9,0.5-1.7v-5.5H487.1z"/>
	<path d="M487.9,199.8l3.4-9.2h2.3l3.4,9.2h-2l-2.1-6.3l-0.4-1.4h0l-0.4,1.4l-2.1,6.3H487.9z M489.9,197.6v-1.4h5.1v1.4H489.9z
		 M494.9,189.7h-1.4l-1-1.3l-1,1.3h-1.4l1.5-2.3h1.8L494.9,189.7z M494.9,188.4l-0.5-0.6c0.3-0.1,0.4-0.2,0.6-0.4
		c0.1-0.1,0.2-0.3,0.2-0.4c0-0.1,0-0.2-0.1-0.3c-0.1-0.1-0.2-0.1-0.4-0.1c-0.1,0-0.2,0-0.3,0.1c-0.1,0.1-0.2,0.2-0.2,0.3l-0.9-0.5
		c0.1-0.3,0.3-0.6,0.6-0.8c0.3-0.2,0.6-0.3,1.1-0.3c0.3,0,0.5,0.1,0.8,0.2s0.4,0.3,0.6,0.5c0.1,0.2,0.2,0.4,0.2,0.7
		c0,0.3-0.1,0.5-0.2,0.7c-0.1,0.2-0.3,0.4-0.5,0.5C495.4,188.2,495.1,188.3,494.9,188.4z"/>
	<path d="M506.3,190.6v9.2h-2.2l-3.2-5.4l-0.8-1.5h0l0.1,1.6v5.3h-1.7v-9.2h2.2l3.2,5.4l0.8,1.5h0l-0.1-1.6v-5.3H506.3z"/>
	<path d="M518.9,190.6v5.8c0,1.1-0.3,2-0.9,2.6c-0.6,0.6-1.5,0.9-2.7,0.9c-0.8,0-1.5-0.1-2-0.4c-0.5-0.3-0.9-0.7-1.1-1.3
		c-0.2-0.5-0.2-1.2-0.1-1.9l1.9-0.3c-0.1,0.8-0.1,1.4,0.2,1.8c0.2,0.4,0.6,0.5,1.2,0.5c0.6,0,1-0.2,1.3-0.6s0.4-0.9,0.4-1.7v-5.6
		H518.9z"/>
	<path d="M529,197.3c-0.2,0.6-0.5,1.1-0.8,1.5s-0.8,0.7-1.4,0.9c-0.5,0.2-1.1,0.3-1.7,0.3c-0.9,0-1.7-0.2-2.4-0.6
		c-0.7-0.4-1.2-0.9-1.5-1.6c-0.4-0.7-0.5-1.6-0.5-2.5s0.2-1.8,0.5-2.5s0.9-1.3,1.5-1.6c0.7-0.4,1.4-0.6,2.3-0.6
		c0.6,0,1.2,0.1,1.7,0.3s0.9,0.4,1.3,0.8s0.6,0.8,0.8,1.3l-1.8,0.7c-0.2-0.6-0.4-1-0.7-1.2c-0.3-0.2-0.7-0.4-1.3-0.4
		c-0.5,0-0.9,0.1-1.3,0.4c-0.4,0.2-0.7,0.6-0.9,1.1c-0.2,0.5-0.3,1.1-0.3,1.7c0,0.7,0.1,1.3,0.3,1.7c0.2,0.5,0.5,0.8,0.8,1.1
		c0.4,0.2,0.8,0.4,1.4,0.4c0.5,0,0.9-0.1,1.3-0.4c0.4-0.3,0.6-0.7,0.8-1.2L529,197.3z"/>
	<path d="M532.6,190.6v9.2h-1.9v-9.2H532.6z"/>
</g>
<g id="Group_2631" transform="translate(138.286 692.159)">
	<path id="Path_5021" class="st31" d="M-137-503H13l24.4-14.8"/>
	<g id="Ellipse_13" transform="translate(173.465)">
		<circle class="st19" cx="-135.7" cy="-518" r="1.3"/>
		<circle class="st32" cx="-135.7" cy="-518" r="0.8"/>
	</g>
</g>
<g class="st30">
	<path d="M18.2,63.1v-1.4h5.3v1.4H18.2z M23.1,57.8c1.4,0,2.6,0.4,3.4,1.2s1.2,1.9,1.2,3.4c0,1.5-0.4,2.6-1.2,3.4S24.5,67,23.1,67
		h-3.6v-9.2H23.1z M22.9,65.5c0.9,0,1.6-0.3,2-0.8c0.4-0.5,0.7-1.3,0.7-2.3c0-1-0.2-1.8-0.7-2.3c-0.4-0.5-1.1-0.8-2-0.8h-1.5v6.2
		H22.9z"/>
	<path d="M33.5,57.7c0.9,0,1.7,0.2,2.4,0.6c0.7,0.4,1.2,0.9,1.5,1.6s0.5,1.6,0.5,2.5s-0.2,1.8-0.5,2.5c-0.4,0.7-0.9,1.3-1.5,1.6
		c-0.7,0.4-1.5,0.6-2.4,0.6s-1.7-0.2-2.4-0.6c-0.7-0.4-1.2-0.9-1.5-1.6c-0.4-0.7-0.5-1.6-0.5-2.5s0.2-1.8,0.5-2.5s0.9-1.3,1.5-1.6
		C31.8,57.9,32.6,57.7,33.5,57.7z M33.5,59.2c-0.5,0-1,0.1-1.3,0.4c-0.4,0.2-0.6,0.6-0.8,1.1c-0.2,0.5-0.3,1.1-0.3,1.7
		c0,0.7,0.1,1.3,0.3,1.7c0.2,0.5,0.5,0.8,0.8,1.1c0.4,0.2,0.8,0.4,1.3,0.4s1-0.1,1.3-0.4c0.4-0.2,0.6-0.6,0.8-1.1
		c0.2-0.5,0.3-1.1,0.3-1.7c0-0.7-0.1-1.3-0.3-1.7c-0.2-0.5-0.5-0.8-0.8-1.1C34.5,59.4,34.1,59.2,33.5,59.2z M36,56.8h-1.4l-1-1.4
		l-1,1.4h-1.4l1.5-2.3h1.9L36,56.8z M33.5,70.1c-0.4,0-0.6-0.1-0.8-0.3c-0.2-0.2-0.3-0.4-0.3-0.7c0-0.3,0.1-0.6,0.3-0.8
		c0.2-0.2,0.5-0.3,0.8-0.3c0.4,0,0.6,0.1,0.8,0.3c0.2,0.2,0.3,0.4,0.3,0.8c0,0.3-0.1,0.6-0.3,0.7C34.2,70,33.9,70.1,33.5,70.1z"/>
	<path d="M41.9,57.8V67h-1.9v-9.2H41.9z"/>
	<path d="M56.5,57.8V67h-2.2L51,61.6l-0.8-1.5h0l0.1,1.6V67h-1.7v-9.2h2.2l3.2,5.4l0.8,1.5h0l-0.1-1.6v-5.3H56.5z"/>
	<path d="M62.7,67.2c-0.8,0-1.6-0.2-2.2-0.6c-0.6-0.4-1.1-0.9-1.5-1.6c-0.4-0.7-0.5-1.6-0.5-2.6c0-1,0.2-1.8,0.6-2.6
		c0.4-0.7,0.9-1.3,1.6-1.6c0.7-0.4,1.5-0.6,2.4-0.6c1,0,1.8,0.2,2.4,0.6c0.6,0.4,1.1,0.9,1.5,1.7l-1.8,0.8c-0.1-0.5-0.4-0.9-0.8-1.1
		c-0.4-0.2-0.8-0.4-1.3-0.4c-0.5,0-1,0.1-1.4,0.4c-0.4,0.2-0.7,0.6-0.9,1.1c-0.2,0.5-0.3,1-0.3,1.7c0,0.7,0.1,1.3,0.3,1.8
		c0.2,0.5,0.5,0.8,0.9,1.1c0.4,0.2,0.9,0.4,1.4,0.4c0.3,0,0.6,0,0.9-0.1c0.3-0.1,0.5-0.2,0.7-0.3c0.2-0.1,0.4-0.3,0.5-0.6
		c0.1-0.2,0.2-0.5,0.2-0.8v-0.2h-2.4v-1.4h4.1V67h-1.4l-0.1-2l0.3,0.2c-0.2,0.6-0.6,1.1-1.1,1.4C64.1,67,63.5,67.2,62.7,67.2z"/>
	<path d="M76.7,57.8v5.6c0,1.3-0.3,2.2-1,2.8c-0.7,0.6-1.7,0.9-2.9,0.9c-1.3,0-2.3-0.3-2.9-0.9c-0.7-0.6-1-1.6-1-2.8v-5.6h1.9v5.5
		c0,0.8,0.2,1.3,0.5,1.7c0.3,0.4,0.8,0.6,1.5,0.6c0.7,0,1.2-0.2,1.5-0.6s0.5-0.9,0.5-1.7v-5.5H76.7z M75.5,55c0,0.5-0.1,0.9-0.2,1.2
		s-0.3,0.5-0.6,0.7s-0.5,0.2-0.8,0.2c-0.3,0-0.5,0-0.7-0.1c-0.2-0.1-0.3-0.2-0.5-0.3c-0.1-0.1-0.3-0.2-0.4-0.3s-0.3-0.1-0.4-0.1
		c-0.2,0-0.3,0.1-0.4,0.2s-0.2,0.4-0.2,0.6h-1.2c0-0.7,0.2-1.2,0.5-1.6c0.3-0.4,0.7-0.5,1.2-0.5c0.3,0,0.5,0,0.7,0.1
		c0.2,0.1,0.3,0.2,0.5,0.3c0.1,0.1,0.3,0.2,0.4,0.3c0.1,0.1,0.2,0.1,0.4,0.1c0.2,0,0.3-0.1,0.4-0.2c0.1-0.1,0.1-0.4,0.2-0.6H75.5z"
		/>
	<path d="M83.2,67v-9.2h4c1.1,0,1.9,0.2,2.5,0.7c0.5,0.4,0.8,1.1,0.8,1.9c0,0.5-0.1,0.9-0.4,1.3c-0.3,0.4-0.7,0.6-1.3,0.7v0
		c0.6,0.1,1.1,0.3,1.5,0.7c0.3,0.4,0.5,0.9,0.5,1.4c0,0.8-0.3,1.4-0.9,1.9c-0.6,0.4-1.4,0.7-2.5,0.7H83.2z M85.1,61.7H87
		c1,0,1.5-0.4,1.5-1.2s-0.5-1.2-1.5-1.2h-1.9V61.7z M85.1,65.6h2.1c0.5,0,0.9-0.1,1.2-0.3c0.3-0.2,0.4-0.5,0.4-0.9
		c0-0.4-0.1-0.7-0.4-0.9c-0.3-0.2-0.6-0.3-1.2-0.3h-2.1V65.6z"/>
	<path d="M91.5,67l3.4-9.2h2.3l3.4,9.2h-2l-2.1-6.3l-0.4-1.4h0l-0.4,1.4L93.5,67H91.5z M93.5,64.8v-1.4h5.1v1.4H93.5z M96.1,54.6
		h1.8l-1.2,2.3h-1.4L96.1,54.6z"/>
	<path d="M109.5,64.5c-0.2,0.6-0.5,1.1-0.8,1.5s-0.8,0.7-1.4,0.9c-0.5,0.2-1.1,0.3-1.7,0.3c-0.9,0-1.7-0.2-2.4-0.6
		c-0.7-0.4-1.2-0.9-1.5-1.6c-0.4-0.7-0.5-1.6-0.5-2.5s0.2-1.8,0.5-2.5s0.9-1.3,1.5-1.6c0.7-0.4,1.4-0.6,2.3-0.6
		c0.6,0,1.2,0.1,1.7,0.3c0.5,0.2,0.9,0.4,1.3,0.8s0.6,0.8,0.8,1.3l-1.8,0.7c-0.2-0.6-0.4-1-0.7-1.2c-0.3-0.2-0.7-0.4-1.3-0.4
		c-0.5,0-0.9,0.1-1.3,0.4c-0.4,0.2-0.7,0.6-0.9,1.1c-0.2,0.5-0.3,1.1-0.3,1.7c0,0.7,0.1,1.3,0.3,1.7c0.2,0.5,0.5,0.8,0.8,1.1
		c0.4,0.2,0.8,0.4,1.4,0.4c0.5,0,0.9-0.1,1.3-0.4s0.6-0.7,0.8-1.2L109.5,64.5z"/>
	<path d="M118.8,57.7c0.8,0,1.6,0.1,2.2,0.4c0.6,0.3,1.2,0.7,1.6,1.3l-1.1,1.2c-0.4-0.5-0.8-0.8-1.3-1.1c-0.5-0.2-1-0.3-1.6-0.3
		c-0.4,0-0.7,0.1-1,0.2c-0.3,0.1-0.4,0.2-0.6,0.4s-0.2,0.4-0.2,0.6c0,0.3,0.1,0.5,0.3,0.6c0.2,0.2,0.5,0.3,1,0.4l1.7,0.4
		c0.9,0.2,1.6,0.5,2,0.9c0.4,0.4,0.6,0.9,0.6,1.6c0,0.6-0.2,1.1-0.5,1.6c-0.3,0.4-0.8,0.8-1.3,1s-1.2,0.3-2,0.3
		c-0.6,0-1.2-0.1-1.8-0.2c-0.5-0.2-1-0.4-1.4-0.6c-0.4-0.3-0.8-0.6-1.1-0.9l1.1-1.3c0.2,0.3,0.5,0.6,0.8,0.8s0.7,0.4,1.1,0.6
		c0.4,0.1,0.8,0.2,1.3,0.2c0.4,0,0.7,0,1-0.1c0.3-0.1,0.5-0.2,0.6-0.4s0.2-0.4,0.2-0.6c0-0.2-0.1-0.5-0.2-0.6
		c-0.2-0.2-0.5-0.3-0.9-0.4l-1.9-0.4c-0.5-0.1-1-0.3-1.4-0.5s-0.7-0.5-0.9-0.8c-0.2-0.3-0.3-0.7-0.3-1.2c0-0.6,0.1-1,0.4-1.5
		c0.3-0.4,0.7-0.8,1.3-1C117.4,57.8,118.1,57.7,118.8,57.7z"/>
	<path d="M128.1,54.7c0,0.5-0.1,0.9-0.2,1.2c-0.1,0.3-0.3,0.5-0.6,0.7s-0.5,0.2-0.8,0.2c-0.3,0-0.5,0-0.7-0.1s-0.3-0.2-0.5-0.3
		s-0.3-0.2-0.4-0.3s-0.3-0.1-0.4-0.1c-0.2,0-0.3,0.1-0.4,0.2c-0.1,0.1-0.2,0.4-0.2,0.6h-1.2c0-0.7,0.2-1.2,0.5-1.6
		c0.3-0.4,0.7-0.5,1.2-0.5c0.3,0,0.5,0,0.7,0.1s0.3,0.2,0.5,0.3c0.1,0.1,0.3,0.2,0.4,0.3s0.2,0.1,0.4,0.1c0.2,0,0.3-0.1,0.4-0.2
		c0.1-0.1,0.1-0.4,0.2-0.6H128.1z M126.4,57.8V67h-1.9v-9.2H126.4z"/>
	<path d="M141,64.5c-0.2,0.6-0.5,1.1-0.8,1.5s-0.8,0.7-1.4,0.9c-0.5,0.2-1.1,0.3-1.7,0.3c-0.9,0-1.7-0.2-2.4-0.6
		c-0.7-0.4-1.2-0.9-1.5-1.6c-0.4-0.7-0.5-1.6-0.5-2.5s0.2-1.8,0.5-2.5s0.9-1.3,1.5-1.6c0.7-0.4,1.4-0.6,2.3-0.6
		c0.6,0,1.2,0.1,1.7,0.3c0.5,0.2,0.9,0.4,1.3,0.8s0.6,0.8,0.8,1.3l-1.8,0.7c-0.2-0.6-0.4-1-0.7-1.2c-0.3-0.2-0.7-0.4-1.3-0.4
		c-0.5,0-0.9,0.1-1.3,0.4c-0.4,0.2-0.7,0.6-0.9,1.1c-0.2,0.5-0.3,1.1-0.3,1.7c0,0.7,0.1,1.3,0.3,1.7c0.2,0.5,0.5,0.8,0.8,1.1
		c0.4,0.2,0.8,0.4,1.4,0.4c0.5,0,0.9-0.1,1.3-0.4s0.6-0.7,0.8-1.2L141,64.5z"/>
	<path d="M144.6,57.8V67h-1.9v-9.2H144.6z M149.7,61.6v1.6h-6v-1.6H149.7z M150.6,57.8V67h-1.9v-9.2H150.6z"/>
	<path d="M160.7,57.8v5.6c0,1.3-0.3,2.2-1,2.8c-0.7,0.6-1.7,0.9-2.9,0.9c-1.3,0-2.3-0.3-2.9-0.9c-0.7-0.6-1-1.6-1-2.8v-5.6h1.9v5.5
		c0,0.8,0.2,1.3,0.5,1.7c0.3,0.4,0.8,0.6,1.5,0.6c0.7,0,1.2-0.2,1.5-0.6s0.5-0.9,0.5-1.7v-5.5H160.7z"/>
	<path d="M170.4,57.8l-3.3,5.8V67h-1.9v-3.5l-3.3-5.8h2.1l1.5,2.8l0.7,1.5l0.7-1.5l1.5-2.8H170.4z"/>
	<path d="M171.6,67v-9.2h6.9v1.6h-5v2.3h3.9v1.5h-3.9v2.4h5.2V67H171.6z M177.4,56.8H176l-1-1.4l-1,1.4h-1.4l1.5-2.3h1.9L177.4,56.8
		z"/>
	<path d="M188.4,57.8V67h-2.2l-3.2-5.4l-0.8-1.5h0l0.1,1.6V67h-1.7v-9.2h2.2l3.2,5.4l0.8,1.5h0l-0.1-1.6v-5.3H188.4z"/>
	<path d="M203,57.8V67h-2.2l-3.2-5.4l-0.8-1.5h0l0.1,1.6V67H195v-9.2h2.2l3.2,5.4l0.8,1.5h0l-0.1-1.6v-5.3H203z"/>
	<path d="M209.2,67.2c-0.8,0-1.6-0.2-2.2-0.6c-0.6-0.4-1.1-0.9-1.5-1.6c-0.4-0.7-0.5-1.6-0.5-2.6c0-1,0.2-1.8,0.6-2.6
		c0.4-0.7,0.9-1.3,1.6-1.6c0.7-0.4,1.5-0.6,2.4-0.6c1,0,1.8,0.2,2.4,0.6c0.6,0.4,1.1,0.9,1.5,1.7l-1.8,0.8c-0.1-0.5-0.4-0.9-0.8-1.1
		c-0.4-0.2-0.8-0.4-1.3-0.4c-0.5,0-1,0.1-1.4,0.4c-0.4,0.2-0.7,0.6-0.9,1.1c-0.2,0.5-0.3,1-0.3,1.7c0,0.7,0.1,1.3,0.3,1.8
		c0.2,0.5,0.5,0.8,0.9,1.1c0.4,0.2,0.9,0.4,1.4,0.4c0.3,0,0.6,0,0.9-0.1c0.3-0.1,0.5-0.2,0.7-0.3c0.2-0.1,0.4-0.3,0.5-0.6
		c0.1-0.2,0.2-0.5,0.2-0.8v-0.2h-2.4v-1.4h4.1V67H212l-0.1-2l0.3,0.2c-0.2,0.6-0.6,1.1-1.1,1.4C210.6,67,210,67.2,209.2,67.2z"/>
	<path d="M217.4,57.8V67h-1.9v-9.2H217.4z M222.5,61.6v1.6h-6v-1.6H222.5z M223.5,57.8V67h-1.9v-9.2H223.5z"/>
	<path d="M227.8,57.8V67h-1.9v-9.2H227.8z"/>
	<path d="M230.2,67v-9.2h6.9v1.6h-5v2.3h3.9v1.5h-3.9v2.4h5.2V67H230.2z M236.1,56.8h-1.4l-1-1.4l-1,1.4h-1.4l1.5-2.3h1.9
		L236.1,56.8z M233.8,70.1c-0.4,0-0.6-0.1-0.8-0.3c-0.2-0.2-0.3-0.4-0.3-0.7c0-0.3,0.1-0.6,0.3-0.8c0.2-0.2,0.5-0.3,0.8-0.3
		c0.4,0,0.6,0.1,0.8,0.3c0.2,0.2,0.3,0.4,0.3,0.8c0,0.3-0.1,0.6-0.3,0.7C234.5,70,234.2,70.1,233.8,70.1z"/>
	<path d="M242.9,57.8c0.7,0,1.3,0.1,1.8,0.4s0.9,0.6,1.2,1c0.3,0.4,0.4,1,0.4,1.6s-0.1,1.2-0.4,1.6s-0.7,0.8-1.2,1s-1.1,0.4-1.8,0.4
		H241V67h-1.9v-9.2H242.9z M242.6,62.2c0.6,0,1-0.1,1.3-0.4c0.3-0.2,0.4-0.6,0.4-1.1c0-0.5-0.1-0.8-0.4-1.1
		c-0.3-0.2-0.7-0.4-1.3-0.4H241v2.9H242.6z"/>
</g>
<g id="Group_2632" transform="translate(154.989 597.716)">
	<path id="Path_5022" class="st31" d="M-137-519.3H95.9l45.6,32.4"/>
	<g id="Ellipse_14" transform="translate(277.546 31.481)">
		<circle class="st19" cx="-135.7" cy="-518" r="1.3"/>
		<circle class="st32" cx="-135.7" cy="-518" r="0.8"/>
	</g>
</g>
<g id="Group_2633" transform="translate(508.346 674.17)">
	<path id="Path_5023" class="st31" d="M25.3-464.4H-115l-20.7-53.3"/>
	<g id="Ellipse_15">
		<circle class="st19" cx="-135.7" cy="-518" r="1.3"/>
		<circle class="st32" cx="-135.7" cy="-518" r="0.8"/>
	</g>
</g>
</svg>
